<svg width="24" height="24" viewBox="0 0 24 24" fill="none" xmlns="http://www.w3.org/2000/svg">
<g id="Container">
<path id="Vector" d="M23.952 10.9303C23.4097 4.81273 18.257 0 12.0014 0C5.38433 0 0 5.38464 0 11.9993C0 14.4282 0.727227 16.692 1.97411 18.5829L0.478703 21.8973C0.0847279 22.7686 0.786528 23.7374 1.73687 23.6371L7.30478 23.044C8.74794 23.6597 10.3351 24 12.0014 24C12.425 24 12.8458 23.9774 13.2582 23.935C13.6394 23.8941 14.0137 23.8362 14.3836 23.7628C19.8414 22.6584 23.9675 17.8372 24 12.0685V11.9993C24 11.6406 23.9845 11.2805 23.952 10.9303ZM18.6665 9.29781L16.1473 13.1841L14.8143 15.2403C14.5305 15.6781 13.9332 15.7825 13.518 15.4662L11.3081 13.7914L9.94539 12.7591C9.83525 12.6757 9.68133 12.6786 9.57401 12.7661L6.23017 15.4944C5.69216 15.9336 4.95646 15.2727 5.33349 14.6909L7.6931 11.0531L9.02611 8.99558C9.30995 8.55781 9.90586 8.45333 10.3224 8.76824L12.4674 10.3951L13.8301 11.426C13.9402 11.5107 14.0941 11.5079 14.2015 11.4189L17.7684 8.49429C18.3064 8.05369 19.0449 8.71458 18.6665 9.29781Z" fill="white"/>
</g>
</svg>
