<svg xmlns="http://www.w3.org/2000/svg" width="30" height="32" viewBox="0 0 30 32" fill="none">
  <path
    d="M29.733 7.06072L15.2038 0.0465922C15.1402 0.0159264 15.0706 0 15 0C14.9294 0 14.8598 0.0159264 14.7962 0.0465922L0.266891 7.06072C0.187505 7.09905 0.120537 7.15899 0.0736736 7.23365C0.0268106 7.30832 0.00195257 7.39469 0.00195313 7.48284V24.5172C0.00195257 24.6053 0.0268106 24.6917 0.0736736 24.7663C0.120537 24.841 0.187505 24.901 0.266891 24.9393L14.7961 31.9534C14.8597 31.9841 14.9294 32 15 32C15.0705 32 15.1402 31.9841 15.2038 31.9534L29.733 24.9393C29.8124 24.901 29.8794 24.841 29.9262 24.7663C29.9731 24.6917 29.998 24.6053 29.998 24.5172V7.4829C29.9979 7.39474 29.9731 7.30837 29.9262 7.23369C29.8794 7.15901 29.8124 7.09906 29.733 7.06072ZM15 0.98928L28.451 7.48284L24.5518 9.36522C24.5271 9.34592 24.5005 9.32916 24.4725 9.31522L11.1128 2.86584L15 0.98928ZM10.0541 3.39584L23.4856 9.87997L20.7347 11.208L7.30877 4.72653L10.0541 3.39584ZM23.7999 10.7692V15.6783L21.2303 16.9188V12.0097L23.7999 10.7692ZM29.0605 24.223L15.4687 30.7844V14.7912L18.7108 13.226C18.7662 13.1993 18.8158 13.1618 18.8568 13.1159C18.8978 13.07 18.9293 13.0164 18.9496 12.9583C18.9698 12.9002 18.9785 12.8386 18.9749 12.7771C18.9714 12.7157 18.9558 12.6555 18.9291 12.6001C18.9023 12.5447 18.8649 12.495 18.8189 12.4541C18.773 12.4131 18.7194 12.3816 18.6613 12.3613C18.6032 12.341 18.5417 12.3324 18.4802 12.3359C18.4187 12.3394 18.3586 12.355 18.3031 12.3818L15 13.9765L13.7002 13.349C13.6448 13.3222 13.5846 13.3066 13.5231 13.3031C13.4617 13.2995 13.4001 13.3082 13.342 13.3284C13.2839 13.3487 13.2303 13.3802 13.1844 13.4212C13.1384 13.4622 13.101 13.5118 13.0743 13.5673C13.0475 13.6227 13.0319 13.6829 13.0284 13.7443C13.0249 13.8058 13.0335 13.8673 13.0538 13.9255C13.0741 13.9836 13.1056 14.0371 13.1466 14.0831C13.1875 14.129 13.2371 14.1665 13.2926 14.1932L14.5312 14.7912V30.7844L0.939453 24.2229V8.22965L11.2895 13.2262C11.3529 13.257 11.4224 13.273 11.4929 13.273C11.5991 13.2731 11.7022 13.2371 11.7854 13.171C11.8685 13.1049 11.9267 13.0124 11.9504 12.9089C11.9741 12.8054 11.962 12.6968 11.9159 12.6011C11.8699 12.5054 11.7927 12.4281 11.697 12.382L1.54889 7.48284L6.20545 5.23484L20.2863 12.0325C20.2884 12.0354 20.2907 12.038 20.2928 12.0408V17.6657C20.2929 17.7451 20.313 17.8231 20.3514 17.8925C20.3898 17.9619 20.4452 18.0205 20.5124 18.0627C20.5796 18.1048 20.6565 18.1293 20.7357 18.1337C20.8149 18.1381 20.8939 18.1223 20.9654 18.0878L24.4725 16.3948C24.5518 16.3565 24.6188 16.2965 24.6657 16.2219C24.7125 16.1472 24.7374 16.0608 24.7374 15.9727V10.3167L29.0605 8.22972V24.223Z"
    fill="#38B6FF" />
  <path
    d="M4.80793 22.405L2.67574 21.3757C2.56378 21.3217 2.43494 21.3143 2.31756 21.3552C2.20017 21.3962 2.10386 21.4821 2.0498 21.594C1.99575 21.706 1.98838 21.8348 2.02932 21.9522C2.07026 22.0696 2.15616 22.1659 2.26811 22.22L4.4003 23.2493C4.46371 23.28 4.53327 23.296 4.60374 23.296C4.69196 23.2961 4.7784 23.2712 4.85313 23.2243C4.92786 23.1774 4.98784 23.1104 5.02618 23.031C5.05295 22.9755 5.06855 22.9154 5.07207 22.8539C5.07559 22.7925 5.06697 22.7309 5.04671 22.6728C5.02644 22.6147 4.99492 22.5611 4.95395 22.5152C4.91298 22.4692 4.86336 22.4318 4.80793 22.405ZM6.77024 21.1277L2.67868 19.1525C2.56699 19.1005 2.43931 19.0945 2.32326 19.1359C2.20722 19.1773 2.11213 19.2627 2.05857 19.3737C2.00501 19.4846 1.99728 19.6122 2.03705 19.7288C2.07683 19.8454 2.16091 19.9417 2.27111 19.9968L6.36268 21.972C6.4261 22.0028 6.49564 22.0187 6.56611 22.0188C6.67236 22.0189 6.77551 21.983 6.85866 21.9168C6.9418 21.8507 7.00001 21.7583 7.02374 21.6547C7.04746 21.5511 7.0353 21.4426 6.98924 21.3468C6.94318 21.2511 6.86596 21.1738 6.77024 21.1277Z"
    fill="#38B6FF" />
</svg>