<svg xmlns="http://www.w3.org/2000/svg" width="111" height="30" viewBox="0 0 111 30" fill="none">
  <path d="M106.516 7.36202H110.916L102.407 29.5558H98.0722L100.854 22.1794L94.5781 7.36202H98.9781L102.86 17.1325H102.893L106.516 7.36202Z" fill="white"/>
  <path d="M88.5888 7.10283C92.0182 7.10283 94.1534 9.14103 94.1534 13.9615V23.1496H89.9152V14.9968C89.9152 12.4733 89.1388 10.8881 87.1653 10.8881C85.3859 10.8881 83.9301 12.4086 83.9301 15.2556V23.1496H79.6919V14.9968C79.6919 12.4733 78.8831 10.8881 76.9096 10.8881C75.0008 10.8881 73.5773 12.4086 73.5773 15.2556V23.1496H69.3391V7.36165H73.5773V9.46456H73.6096C74.839 7.91164 76.5537 7.10283 78.3331 7.10283C80.4036 7.10283 82.0536 7.87929 83.0242 9.62632H83.0889C84.383 7.97635 86.3241 7.10283 88.5888 7.10283Z" fill="white"/>
  <path d="M62.2719 7.36165H66.4777V23.1496H62.466V21.2408H62.369C61.3014 22.632 59.6837 23.4085 57.6455 23.4085C53.278 23.4085 50.1074 20.1732 50.1074 15.288C50.1074 10.4998 53.3103 7.10283 57.5485 7.10283C59.4249 7.10283 61.0425 7.78223 62.1749 9.14104H62.2719V7.36165ZM58.422 19.6232C60.622 19.6232 62.4337 17.9085 62.4337 15.3203C62.4337 12.7969 60.7514 10.8881 58.4543 10.8881C56.1897 10.8881 54.3779 12.6027 54.3779 15.3203C54.3779 17.8762 56.0603 19.6232 58.422 19.6232Z" fill="white"/>
  <path d="M42.6801 7.10283C46.1095 7.10283 48.2447 9.14103 48.2447 13.9615V23.1496H44.0066V14.9968C44.0066 12.4733 43.2301 10.8881 41.2566 10.8881C39.4772 10.8881 38.0214 12.4086 38.0214 15.2556V23.1496H33.7832V14.9968C33.7832 12.4733 32.9744 10.8881 31.0009 10.8881C29.0921 10.8881 27.6686 12.4086 27.6686 15.2556V23.1496H23.4304V7.36165H27.6686V9.46456H27.7009C28.9303 7.91164 30.645 7.10283 32.4244 7.10283C34.4949 7.10283 36.1449 7.87929 37.1155 9.62632H37.1802C38.4743 7.97635 40.4154 7.10283 42.6801 7.10283Z" fill="white"/>
  <path d="M17.3074 23.1498L15.7545 18.5558H6.92225L5.36933 23.1498H0.613525L9.12221 0.179617H13.4898L22.0632 23.1498H17.3074ZM8.2487 14.6735H14.428L11.3545 5.64718H11.2898L8.2487 14.6735Z" fill="white"/>
</svg>