   <svg xmlns="http://www.w3.org/2000/svg" width="32" height="32" viewBox="0 0 32 32" fill="none">
  <path d="M27.8303 11.2735C27.8307 11.142 27.8831 11.0161 27.976 10.9232C28.069 10.8302 28.1949 10.7779 28.3263 10.7775C28.6026 10.7775 28.8296 10.9972 28.8296 11.2735V26.303C28.8291 26.4363 28.7759 26.564 28.6816 26.6582C28.5873 26.7525 28.4596 26.8057 28.3263 26.8062H19.2978C19.0216 26.8062 18.8018 26.5795 18.8018 26.303C18.8018 26.0265 19.0216 25.807 19.2978 25.807H27.8303V11.2735ZM9.36908 14.3065C9.36908 14.5827 9.14208 14.8025 8.86583 14.8025C8.58958 14.8025 8.36258 14.583 8.36258 14.3065V11.2735C8.36258 10.9972 8.58933 10.7775 8.86583 10.7775C9.14233 10.7775 9.36908 10.9972 9.36908 11.2735V14.3065ZM3.52233 26.0902C4.65633 24.8715 5.77608 24.8077 7.33508 25.1902L10.2548 25.9057C10.6801 26.0122 11.0131 26.3097 11.2116 26.6782C11.3046 26.8554 11.3669 27.047 11.3958 27.245C11.4028 27.3087 11.4101 27.3797 11.4101 27.4505L16.3143 25.927C16.8953 25.7215 17.4198 25.8845 17.7741 26.2175C17.929 26.3645 18.0499 26.5435 18.1286 26.742C18.2136 26.9405 18.2488 27.1532 18.2418 27.3655C18.2206 27.8615 17.9513 28.3575 17.3418 28.641C15.0528 29.7325 12.6646 30.7455 10.3398 31.7872C10.1803 31.8628 10.0109 31.9153 9.83658 31.9432C9.66658 31.9715 9.49658 31.9787 9.31933 31.9575L2.47333 31.3692C2.40783 31.3646 2.34392 31.3469 2.28538 31.3172C2.22685 31.2874 2.17489 31.2462 2.1326 31.196C2.0903 31.1457 2.05852 31.0875 2.03915 31.0248C2.01978 30.962 2.01321 30.896 2.01983 30.8307L2.04108 26.799C2.04108 26.5367 2.25358 26.317 2.50883 26.303C2.74983 26.2817 3.35933 26.2675 3.52233 26.0902ZM6.63358 28.6127C6.36408 28.6057 6.14458 28.3717 6.15883 28.0955C6.16063 28.03 6.17556 27.9656 6.20275 27.906C6.22994 27.8464 6.26882 27.7929 6.31709 27.7486C6.36537 27.7044 6.42204 27.6702 6.48375 27.6483C6.54547 27.6264 6.61096 27.6171 6.67633 27.621L10.3118 27.7697C10.3563 27.7256 10.386 27.6687 10.3968 27.607C10.4181 27.543 10.4181 27.4652 10.4038 27.3872C10.3964 27.3021 10.3697 27.2198 10.3258 27.1465C10.2551 27.0117 10.1488 26.9055 10.0211 26.8772L7.10133 26.1615C5.42158 25.7505 4.99658 26.119 4.28058 26.7497L4.22383 26.7995C3.91908 27.1042 3.45133 27.2105 3.03308 27.2597L3.01883 30.4132L9.39708 30.9657C9.50333 30.9727 9.58858 30.9727 9.67333 30.9587C9.75833 30.9445 9.85058 30.9162 9.93558 30.8737L16.9091 27.7487C17.1571 27.6212 17.3273 27.4087 17.2066 27.1185C17.1003 26.8632 16.8736 26.7922 16.6183 26.8775L10.6086 28.748H10.6016C10.5508 28.762 10.4983 28.7692 10.4456 28.7692L6.63358 28.6127ZM4.69883 23.752C4.69883 24.028 4.47208 24.2552 4.20283 24.2552C4.06955 24.2546 3.94189 24.2014 3.84764 24.1072C3.75339 24.0129 3.70018 23.8853 3.69958 23.752V17.176C3.69958 16.4675 4.28083 15.8865 4.98958 15.8865H15.8043C16.5128 15.8865 17.0941 16.4675 17.0941 17.176V24.496C17.0941 24.7722 16.8673 24.9992 16.5908 24.9992C16.3143 24.9992 16.0948 24.7725 16.0948 24.496V17.176C16.0948 17.0202 15.9673 16.8925 15.8043 16.8925H4.98933C4.82633 16.8925 4.69883 17.0202 4.69883 17.176V23.752Z" fill="#38B6FF"/>
  <path d="M8.86563 15.8865H11.9274C12.2036 15.8865 12.4234 16.1133 12.4234 16.3895V20.1593C12.4234 20.4568 12.2534 20.7263 11.9769 20.8465C11.8443 20.9055 11.6974 20.9248 11.554 20.9022C11.4107 20.8796 11.2769 20.816 11.1689 20.719L10.4179 20.0318L9.61013 20.7403C9.50168 20.834 9.36904 20.8954 9.22738 20.9173C8.77363 20.9883 8.36963 20.6268 8.36963 20.1733V16.3898C8.36963 16.1133 8.58913 15.8865 8.86563 15.8865ZM11.4239 16.8925H9.36888V19.6278L9.92163 19.132C10.0704 19.0043 10.2476 18.9478 10.4249 18.9478C10.6021 18.9478 10.7864 19.0115 10.9209 19.1393L11.4239 19.5998V16.8925ZM12.7776 24.7938C12.5014 24.7938 12.2816 24.567 12.2816 24.2905C12.2816 24.014 12.5014 23.7943 12.7776 23.7943H14.1594C14.4356 23.7943 14.6626 24.014 14.6626 24.2905C14.662 24.4238 14.6088 24.5515 14.5146 24.6457C14.4203 24.74 14.2927 24.7932 14.1594 24.7938H12.7776ZM21.6151 16.921H24.4429C24.8541 16.921 25.2294 17.0913 25.4989 17.3605V17.3675C25.6392 17.5051 25.7503 17.6695 25.8258 17.8509C25.9013 18.0323 25.9396 18.227 25.9384 18.4235V26.3033C25.9384 26.5795 25.7186 26.8065 25.4424 26.8065H20.6159C20.4826 26.806 20.3549 26.7528 20.2606 26.6586C20.1663 26.5643 20.1132 26.4366 20.1126 26.3033V18.4233C20.1126 18.012 20.2829 17.6368 20.5521 17.3673V17.3603H20.5591C20.839 17.0797 21.2188 16.9217 21.6151 16.921ZM24.4426 17.9203H21.6151C21.5491 17.9201 21.4836 17.9332 21.4227 17.9588C21.3618 17.9844 21.3067 18.0219 21.2606 18.0693C21.1686 18.1613 21.1119 18.2818 21.1119 18.4235V25.807H24.9389V18.4233C24.9389 18.2815 24.8821 18.161 24.7974 18.069C24.7034 17.9746 24.5759 17.9211 24.4426 17.9203ZM18.5959 8.19128C19.4466 8.19128 20.2119 8.53853 20.7719 9.09128C21.3246 9.65103 21.6719 10.4163 21.6719 11.2668C21.6719 11.543 21.4451 11.7628 21.1686 11.7628H16.0236C15.9584 11.7632 15.8937 11.7507 15.8333 11.7259C15.7729 11.7011 15.718 11.6646 15.6719 11.6185C15.6257 11.5723 15.5891 11.5175 15.5643 11.4571C15.5395 11.3967 15.527 11.3321 15.5274 11.2668C15.5274 10.4165 15.8676 9.65128 16.4274 9.09128C17.0024 8.51586 17.7824 8.19217 18.5959 8.19128ZM20.0631 9.79978C19.8708 9.60649 19.6422 9.45313 19.3904 9.34852C19.1386 9.24392 18.8686 9.19014 18.5959 9.19028C18.3233 9.19014 18.0534 9.24392 17.8016 9.34852C17.5499 9.45313 17.3213 9.60649 17.1291 9.79978C16.8739 10.062 16.6756 10.3948 16.5834 10.7633H20.6089C20.5174 10.3987 20.3288 10.0657 20.0631 9.79978Z" fill="#38B6FF"/>
  <path fill-rule="evenodd" clip-rule="evenodd" d="M23.7977 22.363C23.9291 22.3627 24.0551 22.3104 24.148 22.2175C24.241 22.1246 24.2935 21.9987 24.2939 21.8673C24.2939 21.591 24.0739 21.364 23.7977 21.364C23.5214 21.364 23.2944 21.5908 23.2944 21.8673C23.2947 22.1363 23.5214 22.363 23.7977 22.363Z" fill="#38B6FF"/>
  <path d="M24.5705 4.44976C24.5709 4.51503 24.5584 4.57973 24.5336 4.6401C24.5088 4.70048 24.4722 4.75532 24.4261 4.80146C24.3799 4.84761 24.325 4.88412 24.2647 4.90889C24.2043 4.93366 24.1396 4.94619 24.0743 4.94576C23.798 4.94576 23.571 4.72601 23.571 4.44976V2.31001C23.571 2.03376 23.7978 1.80676 24.0743 1.80676H26.6683C26.9445 1.80676 27.1715 2.03351 27.1715 2.31001V6.44101C27.1715 6.71726 26.9448 6.94401 26.6683 6.94401C26.3918 6.94401 26.1723 6.71726 26.1723 6.44101V2.81301H24.5708L24.5705 4.44976Z" fill="#38B6FF"/>
  <path d="M18.596 4.4215L8.08626 12.4995C7.75326 12.7548 7.35651 12.8538 6.97376 12.8042C6.58068 12.75 6.22448 12.544 5.98151 12.2303L5.52801 11.6493C5.39602 11.4904 5.30159 11.3039 5.25176 11.1035C5.19508 10.9056 5.1806 10.6979 5.20926 10.494C5.23051 10.2815 5.29426 10.083 5.40076 9.90575C5.50167 9.72564 5.63932 9.56875 5.80476 9.44525C5.81176 9.43825 5.82601 9.431 5.83301 9.424L17.682 0.31875C17.9583 0.106 18.277 0 18.596 0C18.9153 0 19.2343 0.106 19.5105 0.31875L31.3953 9.4455C31.5607 9.56888 31.6983 9.7258 31.799 9.906C31.8983 10.0833 31.962 10.2815 31.9905 10.4943C32.0119 10.6983 31.9975 10.9046 31.948 11.1038C31.8919 11.3017 31.7981 11.4871 31.6718 11.6495L31.2183 12.2305C30.9737 12.5459 30.6147 12.7522 30.219 12.8045C30.0237 12.83 29.8252 12.8162 29.6353 12.7639C29.4454 12.7115 29.2679 12.6217 29.1133 12.4998L18.596 4.4215ZM7.47676 11.713L18.284 3.40825C18.3712 3.33834 18.4794 3.29966 18.5912 3.29839C18.703 3.29712 18.812 3.33333 18.9008 3.40125L29.7155 11.713C29.829 11.798 29.9635 11.8335 30.0913 11.8123C30.2188 11.798 30.3393 11.7273 30.4313 11.6138L30.8848 11.04C30.9343 10.9762 30.9698 10.9125 30.9838 10.8415C31.005 10.7778 31.005 10.6997 30.998 10.6147C30.9872 10.5411 30.9658 10.4694 30.9343 10.402C30.8988 10.3385 30.8493 10.2888 30.7853 10.2393L18.908 1.10525C18.8189 1.03567 18.709 0.998153 18.596 0.99875C18.4898 0.99875 18.3835 1.03425 18.2913 1.10525L6.44226 10.2107C6.42801 10.2177 6.42101 10.232 6.40676 10.239C6.35001 10.2885 6.30051 10.3382 6.26501 10.4017C6.22951 10.4585 6.20826 10.5293 6.20126 10.6145C6.18701 10.6995 6.19426 10.7775 6.20826 10.8413C6.22951 10.9123 6.26501 10.976 6.31451 11.0398L6.76101 11.6135C6.85326 11.727 6.97376 11.7978 7.10826 11.812C7.17319 11.8222 7.23955 11.8187 7.30303 11.8017C7.36652 11.7846 7.42571 11.7544 7.47676 11.713ZM0.956761 25.2897H2.08376C2.34601 25.2897 2.58701 25.396 2.75701 25.573C2.84716 25.6603 2.91875 25.7649 2.96746 25.8806C3.01618 25.9962 3.04103 26.1205 3.04051 26.246V31.0432C3.04113 31.1688 3.01633 31.2931 2.9676 31.4087C2.91888 31.5244 2.84724 31.629 2.75701 31.7162C2.66971 31.8066 2.56503 31.8783 2.44928 31.927C2.33354 31.9758 2.20911 32.0006 2.08351 32H0.956761C0.831222 32.0006 0.706861 31.9758 0.591161 31.9271C0.47546 31.8783 0.370811 31.8067 0.283511 31.7165C0.193279 31.6293 0.121642 31.5247 0.0729194 31.409C0.0241964 31.2933 -0.000604523 31.169 1.11893e-05 31.0435V26.2463C1.11893e-05 25.984 0.106261 25.7432 0.283511 25.5732C0.370794 25.483 0.475439 25.4114 0.591144 25.3626C0.706848 25.3139 0.831218 25.2891 0.956761 25.2897ZM2.04126 26.2887H0.999511V31.0007H2.04126V26.2887Z" fill="#38B6FF"/>
</svg>