<svg width="31" height="32" viewBox="0 0 31 32" fill="none" xmlns="http://www.w3.org/2000/svg">
<g id="PhoneCall">
<g id="Vector">
<mask id="path-1-inside-1_8833_4323" fill="white">
<path d="M18.4377 5.09357C18.4706 4.97063 18.5274 4.85537 18.6049 4.75438C18.6823 4.65339 18.7789 4.56865 18.8891 4.505C18.9993 4.44135 19.121 4.40004 19.2471 4.38343C19.3733 4.36681 19.5015 4.37523 19.6245 4.40818C21.4204 4.87675 23.0589 5.81559 24.3713 7.12799C25.6837 8.4404 26.6225 10.0789 27.0911 11.8748C27.1241 11.9977 27.1325 12.126 27.1159 12.2521C27.0992 12.3783 27.0579 12.5 26.9943 12.6102C26.9306 12.7204 26.8459 12.817 26.7449 12.8944C26.6439 12.9719 26.5287 13.0287 26.4057 13.0615C26.3239 13.083 26.2396 13.094 26.155 13.0942C25.9416 13.0942 25.7341 13.0237 25.5648 12.8936C25.3955 12.7636 25.274 12.5812 25.219 12.3749C24.8368 10.9089 24.0706 9.57127 22.9993 8.49997C21.928 7.42867 20.5904 6.66245 19.1243 6.28029C19.0013 6.24754 18.8859 6.19084 18.7848 6.11346C18.6836 6.03607 18.5988 5.9395 18.535 5.82928C18.4712 5.71906 18.4298 5.59735 18.4131 5.47111C18.3964 5.34487 18.4048 5.21658 18.4377 5.09357ZM18.1556 10.1553C19.8255 10.6009 20.8984 11.6738 21.344 13.3437C21.399 13.55 21.5205 13.7323 21.6898 13.8624C21.8591 13.9925 22.0666 14.063 22.28 14.063C22.3646 14.0628 22.4489 14.0518 22.5307 14.0303C22.6537 13.9974 22.7689 13.9406 22.8699 13.8632C22.9709 13.7857 23.0556 13.6891 23.1193 13.5789C23.1829 13.4687 23.2242 13.3471 23.2409 13.2209C23.2575 13.0947 23.2491 12.9665 23.2161 12.8436C22.5961 10.5234 20.9759 8.90318 18.6557 8.28318C18.5328 8.25034 18.4046 8.24204 18.2785 8.25874C18.1523 8.27544 18.0307 8.31683 17.9206 8.38053C17.8104 8.44423 17.7139 8.529 17.6365 8.63C17.5592 8.731 17.5024 8.84625 17.4696 8.96918C17.4368 9.0921 17.4284 9.22029 17.4452 9.34643C17.4619 9.47256 17.5032 9.59417 17.5669 9.70431C17.6306 9.81445 17.7154 9.91097 17.8164 9.98835C17.9174 10.0657 18.0327 10.1225 18.1556 10.1553ZM28.078 21.7016C27.8621 23.3424 27.0563 24.8486 25.811 25.9387C24.5658 27.0289 22.9663 27.6285 21.3113 27.6255C11.6964 27.6255 3.87379 19.8028 3.87379 10.188C3.87082 8.53299 4.4704 6.9335 5.56055 5.68826C6.65069 4.44302 8.15684 3.63719 9.7977 3.42127C10.2126 3.3706 10.6328 3.45549 10.9955 3.66326C11.3583 3.87103 11.6441 4.19053 11.8103 4.57408L14.3678 10.2837V10.2982C14.495 10.5918 14.5476 10.9123 14.5207 11.2312C14.4939 11.55 14.3885 11.8573 14.214 12.1255C14.1922 12.1582 14.1692 12.1885 14.145 12.2187L11.6238 15.2073C12.5308 17.0504 14.4586 18.9612 16.3259 19.8706L19.2733 17.3628C19.3022 17.3385 19.3326 17.3158 19.3641 17.295C19.6321 17.1162 19.9404 17.0071 20.2611 16.9775C20.5819 16.9479 20.9049 16.9988 21.2011 17.1254L21.2168 17.1327L26.9216 19.689C27.3058 19.8546 27.6261 20.1402 27.8345 20.5029C28.043 20.8657 28.1284 21.2862 28.078 21.7016ZM26.155 21.4594C26.155 21.4594 26.1466 21.4594 26.1417 21.4594L20.4503 18.9104L17.5017 21.4182C17.4731 21.4425 17.4432 21.4651 17.4121 21.486C17.1333 21.672 16.811 21.7825 16.4767 21.8067C16.1424 21.8309 15.8075 21.768 15.5048 21.6241C13.2368 20.5282 10.9759 18.2843 9.87883 16.0404C9.73355 15.74 9.66836 15.407 9.68958 15.074C9.71079 14.7409 9.8177 14.4189 9.99992 14.1393C10.0205 14.1064 10.0435 14.0753 10.0689 14.046L12.5925 11.0538L10.0496 5.3624C10.0491 5.35757 10.0491 5.3527 10.0496 5.34787C8.87527 5.50105 7.79708 6.07705 7.01691 6.968C6.23675 7.85895 5.80812 9.00374 5.81129 10.188C5.81578 14.2975 7.45025 18.2373 10.3561 21.1432C13.2619 24.049 17.2018 25.6835 21.3113 25.688C22.4948 25.6921 23.6393 25.2649 24.5308 24.4864C25.4222 23.708 25.9996 22.6315 26.155 21.4582V21.4594Z"/>
</mask>
<path d="M18.4377 5.09357C18.4706 4.97063 18.5274 4.85537 18.6049 4.75438C18.6823 4.65339 18.7789 4.56865 18.8891 4.505C18.9993 4.44135 19.121 4.40004 19.2471 4.38343C19.3733 4.36681 19.5015 4.37523 19.6245 4.40818C21.4204 4.87675 23.0589 5.81559 24.3713 7.12799C25.6837 8.4404 26.6225 10.0789 27.0911 11.8748C27.1241 11.9977 27.1325 12.126 27.1159 12.2521C27.0992 12.3783 27.0579 12.5 26.9943 12.6102C26.9306 12.7204 26.8459 12.817 26.7449 12.8944C26.6439 12.9719 26.5287 13.0287 26.4057 13.0615C26.3239 13.083 26.2396 13.094 26.155 13.0942C25.9416 13.0942 25.7341 13.0237 25.5648 12.8936C25.3955 12.7636 25.274 12.5812 25.219 12.3749C24.8368 10.9089 24.0706 9.57127 22.9993 8.49997C21.928 7.42867 20.5904 6.66245 19.1243 6.28029C19.0013 6.24754 18.8859 6.19084 18.7848 6.11346C18.6836 6.03607 18.5988 5.9395 18.535 5.82928C18.4712 5.71906 18.4298 5.59735 18.4131 5.47111C18.3964 5.34487 18.4048 5.21658 18.4377 5.09357ZM18.1556 10.1553C19.8255 10.6009 20.8984 11.6738 21.344 13.3437C21.399 13.55 21.5205 13.7323 21.6898 13.8624C21.8591 13.9925 22.0666 14.063 22.28 14.063C22.3646 14.0628 22.4489 14.0518 22.5307 14.0303C22.6537 13.9974 22.7689 13.9406 22.8699 13.8632C22.9709 13.7857 23.0556 13.6891 23.1193 13.5789C23.1829 13.4687 23.2242 13.3471 23.2409 13.2209C23.2575 13.0947 23.2491 12.9665 23.2161 12.8436C22.5961 10.5234 20.9759 8.90318 18.6557 8.28318C18.5328 8.25034 18.4046 8.24204 18.2785 8.25874C18.1523 8.27544 18.0307 8.31683 17.9206 8.38053C17.8104 8.44423 17.7139 8.529 17.6365 8.63C17.5592 8.731 17.5024 8.84625 17.4696 8.96918C17.4368 9.0921 17.4284 9.22029 17.4452 9.34643C17.4619 9.47256 17.5032 9.59417 17.5669 9.70431C17.6306 9.81445 17.7154 9.91097 17.8164 9.98835C17.9174 10.0657 18.0327 10.1225 18.1556 10.1553ZM28.078 21.7016C27.8621 23.3424 27.0563 24.8486 25.811 25.9387C24.5658 27.0289 22.9663 27.6285 21.3113 27.6255C11.6964 27.6255 3.87379 19.8028 3.87379 10.188C3.87082 8.53299 4.4704 6.9335 5.56055 5.68826C6.65069 4.44302 8.15684 3.63719 9.7977 3.42127C10.2126 3.3706 10.6328 3.45549 10.9955 3.66326C11.3583 3.87103 11.6441 4.19053 11.8103 4.57408L14.3678 10.2837V10.2982C14.495 10.5918 14.5476 10.9123 14.5207 11.2312C14.4939 11.55 14.3885 11.8573 14.214 12.1255C14.1922 12.1582 14.1692 12.1885 14.145 12.2187L11.6238 15.2073C12.5308 17.0504 14.4586 18.9612 16.3259 19.8706L19.2733 17.3628C19.3022 17.3385 19.3326 17.3158 19.3641 17.295C19.6321 17.1162 19.9404 17.0071 20.2611 16.9775C20.5819 16.9479 20.9049 16.9988 21.2011 17.1254L21.2168 17.1327L26.9216 19.689C27.3058 19.8546 27.6261 20.1402 27.8345 20.5029C28.043 20.8657 28.1284 21.2862 28.078 21.7016ZM26.155 21.4594C26.155 21.4594 26.1466 21.4594 26.1417 21.4594L20.4503 18.9104L17.5017 21.4182C17.4731 21.4425 17.4432 21.4651 17.4121 21.486C17.1333 21.672 16.811 21.7825 16.4767 21.8067C16.1424 21.8309 15.8075 21.768 15.5048 21.6241C13.2368 20.5282 10.9759 18.2843 9.87883 16.0404C9.73355 15.74 9.66836 15.407 9.68958 15.074C9.71079 14.7409 9.8177 14.4189 9.99992 14.1393C10.0205 14.1064 10.0435 14.0753 10.0689 14.046L12.5925 11.0538L10.0496 5.3624C10.0491 5.35757 10.0491 5.3527 10.0496 5.34787C8.87527 5.50105 7.79708 6.07705 7.01691 6.968C6.23675 7.85895 5.80812 9.00374 5.81129 10.188C5.81578 14.2975 7.45025 18.2373 10.3561 21.1432C13.2619 24.049 17.2018 25.6835 21.3113 25.688C22.4948 25.6921 23.6393 25.2649 24.5308 24.4864C25.4222 23.708 25.9996 22.6315 26.155 21.4582V21.4594Z" fill="#343330"/>
<path d="M18.4377 5.09357L20.3697 5.61087L20.3698 5.61035L18.4377 5.09357ZM19.6245 4.40818L19.1065 6.34L19.1195 6.3434L19.6245 4.40818ZM27.0911 11.8748L25.1558 12.3798L25.1593 12.3927L27.0911 11.8748ZM26.4057 13.0615L26.9138 14.9959L26.9225 14.9936L26.4057 13.0615ZM26.155 13.0942L26.155 15.0942L26.1601 15.0942L26.155 13.0942ZM25.219 12.3749L23.2836 12.8794L23.2864 12.8899L25.219 12.3749ZM19.1243 6.28029L18.6099 8.21302L18.6199 8.21562L19.1243 6.28029ZM18.1556 10.1553L17.6394 12.0875L17.6399 12.0877L18.1556 10.1553ZM21.344 13.3437L23.2765 12.8287L23.2764 12.828L21.344 13.3437ZM22.28 14.063L22.28 16.063L22.2851 16.063L22.28 14.063ZM22.5307 14.0303L23.0388 15.9647L23.0475 15.9624L22.5307 14.0303ZM23.2161 12.8436L21.2839 13.3599L21.2843 13.3615L23.2161 12.8436ZM18.6557 8.28318L19.172 6.35098L19.1719 6.35094L18.6557 8.28318ZM28.078 21.7016L30.0609 21.9625L30.0622 21.9525L30.0635 21.9424L28.078 21.7016ZM21.3113 27.6255L21.3149 25.6255H21.3113V27.6255ZM3.87379 10.188H5.87379L5.87379 10.1844L3.87379 10.188ZM9.7977 3.42127L9.55529 1.43601L9.54602 1.43714L9.53677 1.43836L9.7977 3.42127ZM11.8103 4.57408L9.97518 5.36934L9.98003 5.38053L9.98502 5.39167L11.8103 4.57408ZM14.3678 10.2837H16.3678V9.85618L16.193 9.46606L14.3678 10.2837ZM14.3678 10.2982H12.3678V10.713L12.5327 11.0935L14.3678 10.2982ZM14.214 12.1255L15.8781 13.2349L15.8842 13.2257L15.8903 13.2164L14.214 12.1255ZM14.145 12.2187L15.6737 13.5083L15.6904 13.4884L15.7067 13.4681L14.145 12.2187ZM11.6238 15.2073L10.0951 13.9177L9.25195 14.9172L9.82931 16.0904L11.6238 15.2073ZM16.3259 19.8706L15.4501 21.6687L16.6259 22.2414L17.6219 21.3939L16.3259 19.8706ZM19.2733 17.3628L17.9863 15.8318L17.9772 15.8396L19.2733 17.3628ZM19.3641 17.295L20.4663 18.9639L20.4739 18.9588L19.3641 17.295ZM21.2011 17.1254L22.0393 15.3096L22.0136 15.2977L21.9876 15.2866L21.2011 17.1254ZM21.2168 17.1327L20.3786 18.9486L20.3888 18.9533L20.399 18.9579L21.2168 17.1327ZM26.9216 19.689L26.1037 21.5141L26.1168 21.52L26.1299 21.5256L26.9216 19.689ZM26.155 21.4594V23.4594H28.155V21.4594H26.155ZM26.1417 21.4594L25.3242 23.2847L25.7143 23.4594H26.1417V21.4594ZM20.4503 18.9104L21.2678 17.0851L20.116 16.5692L19.1546 17.3869L20.4503 18.9104ZM17.5017 21.4182L18.7944 22.9443L18.7974 22.9417L17.5017 21.4182ZM17.4121 21.486L18.522 23.1498L18.5295 23.1448L17.4121 21.486ZM15.5048 21.6241L14.6347 23.4249L14.6461 23.4303L15.5048 21.6241ZM9.87883 16.0404L8.07821 16.911L8.08209 16.9189L9.87883 16.0404ZM9.99992 14.1393L11.6755 15.2312L11.6856 15.2157L11.6955 15.2L9.99992 14.1393ZM10.0689 14.046L11.5785 15.358L11.5883 15.3468L11.5978 15.3354L10.0689 14.046ZM12.5925 11.0538L14.1214 12.3432L14.9305 11.3838L14.4186 10.2379L12.5925 11.0538ZM10.0496 5.3624L8.05927 5.55912L8.09119 5.88203L8.22355 6.17828L10.0496 5.3624ZM10.0496 5.34787L12.0399 5.54459L12.2875 3.03899L9.79087 3.36467L10.0496 5.34787ZM5.81129 10.188L7.81129 10.1858L7.81128 10.1826L5.81129 10.188ZM21.3113 25.688L21.3182 23.688L21.3135 23.688L21.3113 25.688ZM26.155 21.4582H28.155L24.1724 21.1956L26.155 21.4582ZM20.3698 5.61035C20.3348 5.74123 20.2744 5.86392 20.1919 5.97143L17.0178 3.53733C16.7805 3.84681 16.6064 4.20003 16.5057 4.5768L20.3698 5.61035ZM20.1919 5.97143C20.1095 6.07893 20.0067 6.16914 19.8893 6.2369L17.8888 2.7731C17.5511 2.96816 17.2551 3.22785 17.0178 3.53733L20.1919 5.97143ZM19.8893 6.2369C19.772 6.30466 19.6425 6.34863 19.5082 6.36631L18.9861 2.40054C18.5994 2.45144 18.2266 2.57804 17.8888 2.7731L19.8893 6.2369ZM19.5082 6.36631C19.3739 6.384 19.2374 6.37504 19.1065 6.33996L20.1424 2.47641C19.7657 2.37541 19.3728 2.34963 18.9861 2.40054L19.5082 6.36631ZM19.1195 6.3434C20.5714 6.72221 21.8961 7.4812 22.9571 8.54221L25.7855 5.71378C24.2217 4.14997 22.2693 3.0313 20.1294 2.47297L19.1195 6.3434ZM22.9571 8.54221C24.0181 9.60321 24.7771 10.9279 25.1559 12.3797L29.0263 11.3699C28.468 9.22999 27.3493 7.27758 25.7855 5.71378L22.9571 8.54221ZM25.1593 12.3927C25.1242 12.2619 25.1153 12.1254 25.133 11.9911L29.0987 12.5132C29.1497 12.1265 29.1239 11.7336 29.0229 11.3569L25.1593 12.3927ZM25.133 11.9911C25.1506 11.8568 25.1946 11.7273 25.2624 11.6099L28.7262 13.6105C28.9212 13.2727 29.0478 12.8999 29.0987 12.5132L25.133 11.9911ZM25.2624 11.6099C25.3301 11.4926 25.4203 11.3898 25.5279 11.3074L27.962 14.4815C28.2714 14.2442 28.5311 13.9482 28.7262 13.6105L25.2624 11.6099ZM25.5279 11.3074C25.6354 11.2249 25.7581 11.1645 25.8889 11.1295L26.9225 14.9936C27.2993 14.8928 27.6525 14.7188 27.962 14.4815L25.5279 11.3074ZM25.8976 11.1272C25.98 11.1055 26.0648 11.0945 26.15 11.0942L26.1601 15.0942C26.4145 15.0936 26.6678 15.0606 26.9138 14.9959L25.8976 11.1272ZM26.1551 11.0942C26.3824 11.0942 26.6032 11.1693 26.7834 11.3078L24.3462 14.4795C24.8649 14.8781 25.5008 15.0942 26.155 15.0942L26.1551 11.0942ZM26.7834 11.3078C26.9636 11.4462 27.093 11.6404 27.1515 11.8599L23.2864 12.8899C23.4549 13.5221 23.8274 14.0809 24.3462 14.4795L26.7834 11.3078ZM27.1543 11.8705C26.6824 10.0602 25.7363 8.40856 24.4135 7.08575L21.5851 9.91418C22.4049 10.734 22.9912 11.7576 23.2837 12.8794L27.1543 11.8705ZM24.4135 7.08575C23.0907 5.76295 21.4391 4.81684 19.6288 4.34496L18.6199 8.21562C19.7417 8.50806 20.7653 9.09439 21.5851 9.91418L24.4135 7.08575ZM19.6388 4.34759C19.7698 4.38245 19.8926 4.4428 20.0003 4.52519L17.5693 7.70173C17.8792 7.93889 18.2328 8.11262 18.6099 8.213L19.6388 4.34759ZM20.0003 4.52519C20.1079 4.60758 20.1983 4.71037 20.2661 4.8277L16.8039 6.83087C16.9993 7.16863 17.2594 7.46456 17.5693 7.70173L20.0003 4.52519ZM20.2661 4.8277C20.334 4.94502 20.3781 5.07458 20.3959 5.20897L16.4304 5.73325C16.4815 6.12012 16.6084 6.4931 16.8039 6.83087L20.2661 4.8277ZM20.3959 5.20897C20.4136 5.34336 20.4047 5.47993 20.3697 5.61087L16.5058 4.57628C16.4049 4.95323 16.3792 5.34638 16.4304 5.73325L20.3959 5.20897ZM17.6399 12.0877C18.618 12.3487 19.1506 12.8813 19.4116 13.8594L23.2764 12.828C22.6461 10.4664 21.0329 8.85315 18.6713 8.22292L17.6399 12.0877ZM19.4114 13.8587C19.5799 14.4908 19.9524 15.0496 20.4712 15.4482L22.9084 12.2765C23.0886 12.415 23.218 12.6091 23.2765 12.8287L19.4114 13.8587ZM20.4712 15.4482C20.9899 15.8469 21.6258 16.063 22.28 16.063L22.2801 12.063C22.5074 12.063 22.7282 12.1381 22.9084 12.2765L20.4712 15.4482ZM22.2851 16.063C22.5395 16.0623 22.7928 16.0293 23.0388 15.9647L22.0226 12.0959C22.105 12.0743 22.1898 12.0632 22.275 12.063L22.2851 16.063ZM23.0475 15.9624C23.4243 15.8616 23.7775 15.6876 24.087 15.4502L21.6529 12.2761C21.7604 12.1937 21.8831 12.1332 22.0139 12.0982L23.0475 15.9624ZM24.087 15.4502C24.3964 15.2129 24.6561 14.9169 24.8512 14.5792L21.3874 12.5787C21.4551 12.4614 21.5453 12.3585 21.6529 12.2761L24.087 15.4502ZM24.8512 14.5792C25.0462 14.2415 25.1728 13.8686 25.2237 13.4819L21.258 12.9598C21.2756 12.8255 21.3196 12.696 21.3874 12.5787L24.8512 14.5792ZM25.2237 13.4819C25.2747 13.0953 25.2489 12.7024 25.1479 12.3257L21.2843 13.3615C21.2492 13.2306 21.2403 13.0942 21.258 12.9598L25.2237 13.4819ZM25.1483 12.3272C24.3436 9.31584 22.1834 7.1557 19.172 6.35098L18.1394 10.2154C19.7683 10.6507 20.8486 11.731 21.2839 13.3599L25.1483 12.3272ZM19.1719 6.35094C18.7952 6.25032 18.4024 6.22487 18.0159 6.27605L18.541 10.2414C18.4068 10.2592 18.2703 10.2504 18.1395 10.2154L19.1719 6.35094ZM18.0159 6.27605C17.6294 6.32723 17.2568 6.45404 16.9193 6.64923L18.9219 10.1118C18.8047 10.1796 18.6752 10.2237 18.541 10.2414L18.0159 6.27605ZM16.9193 6.64923C16.5818 6.84443 16.286 7.10419 16.0489 7.41367L19.2242 9.84633C19.1418 9.95381 19.0391 10.044 18.9219 10.1118L16.9193 6.64923ZM16.0489 7.41367C15.8118 7.72315 15.638 8.07631 15.5373 8.453L19.4018 9.48536C19.3669 9.61619 19.3065 9.73885 19.2242 9.84633L16.0489 7.41367ZM15.5373 8.453C15.4367 8.82967 15.4113 9.22247 15.4625 9.60897L19.4278 9.08388C19.4456 9.21811 19.4368 9.35454 19.4018 9.48536L15.5373 8.453ZM15.4625 9.60897C15.5136 9.99548 15.6404 10.3681 15.8356 10.7056L19.2982 8.703C19.366 8.82022 19.4101 8.94964 19.4278 9.08388L15.4625 9.60897ZM15.8356 10.7056C16.0308 11.0431 16.2906 11.3389 16.6001 11.576L19.0327 8.40072C19.1402 8.48307 19.2304 8.58578 19.2982 8.703L15.8356 10.7056ZM16.6001 11.576C16.9096 11.8131 17.2627 11.9869 17.6394 12.0875L18.6718 8.22305C18.8026 8.258 18.9253 8.31837 19.0327 8.40072L16.6001 11.576ZM26.0951 21.4407C25.9426 22.5998 25.3733 23.6638 24.4936 24.4339L27.1284 27.4436C28.7392 26.0334 29.7816 24.0851 30.0609 21.9625L26.0951 21.4407ZM24.4936 24.4339C23.614 25.204 22.484 25.6276 21.3149 25.6255L21.3077 29.6255C23.4486 29.6293 25.5176 28.8537 27.1284 27.4436L24.4936 24.4339ZM21.3113 25.6255C12.801 25.6255 5.87379 18.6983 5.87379 10.188H1.87379C1.87379 20.9074 10.5919 29.6255 21.3113 29.6255V25.6255ZM5.87379 10.1844C5.87169 9.01526 6.29525 7.88533 7.06537 7.00565L4.05573 4.37087C2.64555 5.98167 1.86996 8.05072 1.87379 10.1916L5.87379 10.1844ZM7.06537 7.00565C7.83548 6.12597 8.89947 5.55671 10.0586 5.40417L9.53677 1.43836C7.41421 1.71767 5.4659 2.76007 4.05573 4.37087L7.06537 7.00565ZM10.0401 5.40652C10.0267 5.40816 10.0132 5.40542 10.0015 5.39872L11.9896 1.9278C11.2525 1.50556 10.3985 1.33305 9.55529 1.43601L10.0401 5.40652ZM10.0015 5.39872C9.98976 5.39202 9.98054 5.38171 9.97518 5.36934L13.6454 3.77883C13.3076 2.99936 12.7268 2.35004 11.9896 1.9278L10.0015 5.39872ZM9.98502 5.39167L12.5425 11.1012L16.193 9.46606L13.6355 3.75649L9.98502 5.39167ZM12.3678 10.2837V10.2982H16.3678V10.2837H12.3678ZM12.5327 11.0935C12.5286 11.0841 12.5269 11.0737 12.5278 11.0635L16.5137 11.3989C16.5682 10.7509 16.4614 10.0995 16.2028 9.50282L12.5327 11.0935ZM12.5278 11.0635C12.5287 11.0532 12.5321 11.0433 12.5377 11.0346L15.8903 13.2164C16.245 12.6713 16.4592 12.0469 16.5137 11.3989L12.5278 11.0635ZM12.5499 11.0161C12.5721 10.9828 12.5879 10.9636 12.5832 10.9693L15.7067 13.4681C15.7505 13.4134 15.8123 13.3336 15.8781 13.2349L12.5499 11.0161ZM12.6163 10.9291L10.0951 13.9177L13.1525 16.4969L15.6737 13.5083L12.6163 10.9291ZM9.82931 16.0904C10.9351 18.3375 13.189 20.5675 15.4501 21.6687L17.2016 18.0726C15.7282 17.355 14.1264 15.7632 13.4183 14.3242L9.82931 16.0904ZM17.6219 21.3939L20.5693 18.886L17.9772 15.8396L15.0298 18.3474L17.6219 21.3939ZM20.5602 18.8937C20.5303 18.9189 20.4989 18.9423 20.4663 18.9638L18.2619 15.6261C18.1662 15.6893 18.0742 15.758 17.9863 15.8319L20.5602 18.8937ZM20.4739 18.9588C20.4652 18.9646 20.4553 18.9681 20.4449 18.9691L20.0773 14.986C19.4255 15.0462 18.7989 15.2679 18.2543 15.6311L20.4739 18.9588ZM20.4449 18.9691C20.4346 18.97 20.4242 18.9684 20.4146 18.9643L21.9876 15.2866C21.3857 15.0292 20.7292 14.9259 20.0773 14.986L20.4449 18.9691ZM20.3629 18.9413L20.3786 18.9486L22.0551 15.3169L22.0393 15.3096L20.3629 18.9413ZM20.399 18.9579L26.1037 21.5141L27.7394 17.8639L22.0347 15.3076L20.399 18.9579ZM26.1299 21.5256C26.1175 21.5203 26.1071 21.5111 26.1004 21.4994L29.5686 19.5065C29.145 18.7693 28.4941 18.189 27.7133 17.8524L26.1299 21.5256ZM26.1004 21.4994C26.0937 21.4877 26.0909 21.4741 26.0926 21.4607L30.0635 21.9424C30.1659 21.0983 29.9923 20.2438 29.5686 19.5065L26.1004 21.4994ZM26.155 21.4594C26.155 19.4594 26.155 19.4594 26.155 19.4594H26.155H26.155C26.155 19.4594 26.155 19.4594 26.155 19.4594C26.155 19.4594 26.155 19.4594 26.155 19.4594C26.155 19.4594 26.155 19.4594 26.155 19.4594C26.155 19.4594 26.155 19.4594 26.155 19.4594C26.155 19.4594 26.155 19.4594 26.155 19.4594H26.155H26.155C26.155 19.4594 26.155 19.4594 26.155 19.4594H26.155C26.155 19.4594 26.155 19.4594 26.155 19.4594C26.155 19.4594 26.155 19.4594 26.155 19.4594C26.155 19.4594 26.155 19.4594 26.155 19.4594H26.155C26.155 19.4594 26.155 19.4594 26.155 19.4594C26.155 19.4594 26.155 19.4594 26.155 19.4594C26.155 19.4594 26.155 19.4594 26.155 19.4594C26.155 19.4594 26.155 19.4594 26.155 19.4594C26.155 19.4594 26.155 19.4594 26.155 19.4594C26.155 19.4594 26.155 19.4594 26.155 19.4594C26.155 19.4594 26.155 19.4594 26.155 19.4594C26.155 19.4594 26.155 19.4594 26.155 19.4594C26.155 19.4594 26.155 19.4594 26.155 19.4594C26.155 19.4594 26.155 19.4594 26.155 19.4594C26.155 19.4594 26.155 19.4594 26.155 19.4594C26.1549 19.4594 26.1549 19.4594 26.1549 19.4594C26.1549 19.4594 26.1549 19.4594 26.1549 19.4594C26.1549 19.4594 26.1549 19.4594 26.1549 19.4594C26.1549 19.4594 26.1549 19.4594 26.1549 19.4594C26.1549 19.4594 26.1549 19.4594 26.1549 19.4594C26.1549 19.4594 26.1549 19.4594 26.1549 19.4594C26.1549 19.4594 26.1549 19.4594 26.1549 19.4594C26.1549 19.4594 26.1549 19.4594 26.1549 19.4594C26.1549 19.4594 26.1549 19.4594 26.1549 19.4594C26.1549 19.4594 26.1549 19.4594 26.1549 19.4594C26.1549 19.4594 26.1549 19.4594 26.1549 19.4594C26.1549 19.4594 26.1549 19.4594 26.1549 19.4594C26.1549 19.4594 26.1549 19.4594 26.1549 19.4594C26.1549 19.4594 26.1549 19.4594 26.1549 19.4594C26.1549 19.4594 26.1548 19.4594 26.1548 19.4594C26.1548 19.4594 26.1548 19.4594 26.1548 19.4594C26.1548 19.4594 26.1548 19.4594 26.1548 19.4594C26.1548 19.4594 26.1548 19.4594 26.1548 19.4594C26.1548 19.4594 26.1548 19.4594 26.1548 19.4594C26.1548 19.4594 26.1548 19.4594 26.1548 19.4594C26.1548 19.4594 26.1548 19.4594 26.1548 19.4594C26.1548 19.4594 26.1548 19.4594 26.1548 19.4594C26.1548 19.4594 26.1548 19.4594 26.1548 19.4594C26.1548 19.4594 26.1548 19.4594 26.1548 19.4594C26.1548 19.4594 26.1548 19.4594 26.1548 19.4594C26.1548 19.4594 26.1547 19.4594 26.1547 19.4594C26.1547 19.4594 26.1547 19.4594 26.1547 19.4594C26.1547 19.4594 26.1547 19.4594 26.1547 19.4594C26.1547 19.4594 26.1547 19.4594 26.1547 19.4594C26.1547 19.4594 26.1547 19.4594 26.1547 19.4594C26.1547 19.4594 26.1547 19.4594 26.1547 19.4594C26.1547 19.4594 26.1547 19.4594 26.1547 19.4594C26.1547 19.4594 26.1547 19.4594 26.1547 19.4594C26.1547 19.4594 26.1547 19.4594 26.1547 19.4594C26.1547 19.4594 26.1546 19.4594 26.1546 19.4594C26.1546 19.4594 26.1546 19.4594 26.1546 19.4594C26.1546 19.4594 26.1546 19.4594 26.1546 19.4594C26.1546 19.4594 26.1546 19.4594 26.1546 19.4594C26.1546 19.4594 26.1546 19.4594 26.1546 19.4594C26.1546 19.4594 26.1546 19.4594 26.1546 19.4594C26.1546 19.4594 26.1546 19.4594 26.1546 19.4594C26.1546 19.4594 26.1546 19.4594 26.1546 19.4594C26.1546 19.4594 26.1546 19.4594 26.1545 19.4594C26.1545 19.4594 26.1545 19.4594 26.1545 19.4594C26.1545 19.4594 26.1545 19.4594 26.1545 19.4594C26.1545 19.4594 26.1545 19.4594 26.1545 19.4594C26.1545 19.4594 26.1545 19.4594 26.1545 19.4594C26.1545 19.4594 26.1545 19.4594 26.1545 19.4594C26.1545 19.4594 26.1545 19.4594 26.1545 19.4594C26.1545 19.4594 26.1545 19.4594 26.1545 19.4594C26.1544 19.4594 26.1544 19.4594 26.1544 19.4594C26.1544 19.4594 26.1544 19.4594 26.1544 19.4594C26.1544 19.4594 26.1544 19.4594 26.1544 19.4594C26.1544 19.4594 26.1544 19.4594 26.1544 19.4594C26.1544 19.4594 26.1544 19.4594 26.1544 19.4594C26.1544 19.4594 26.1544 19.4594 26.1544 19.4594C26.1544 19.4594 26.1544 19.4594 26.1544 19.4594C26.1543 19.4594 26.1543 19.4594 26.1543 19.4594C26.1543 19.4594 26.1543 19.4594 26.1543 19.4594C26.1543 19.4594 26.1543 19.4594 26.1543 19.4594C26.1543 19.4594 26.1543 19.4594 26.1543 19.4594C26.1543 19.4594 26.1543 19.4594 26.1543 19.4594C26.1543 19.4594 26.1543 19.4594 26.1543 19.4594C26.1543 19.4594 26.1542 19.4594 26.1542 19.4594C26.1542 19.4594 26.1542 19.4594 26.1542 19.4594C26.1542 19.4594 26.1542 19.4594 26.1542 19.4594C26.1542 19.4594 26.1542 19.4594 26.1542 19.4594C26.1542 19.4594 26.1542 19.4594 26.1542 19.4594C26.1542 19.4594 26.1542 19.4594 26.1542 19.4594C26.1542 19.4594 26.1542 19.4594 26.1541 19.4594C26.1541 19.4594 26.1541 19.4594 26.1541 19.4594C26.1541 19.4594 26.1541 19.4594 26.1541 19.4594C26.1541 19.4594 26.1541 19.4594 26.1541 19.4594C26.1541 19.4594 26.1541 19.4594 26.1541 19.4594C26.1541 19.4594 26.1541 19.4594 26.1541 19.4594C26.1541 19.4594 26.154 19.4594 26.154 19.4594C26.154 19.4594 26.154 19.4594 26.154 19.4594C26.154 19.4594 26.154 19.4594 26.154 19.4594C26.154 19.4594 26.154 19.4594 26.154 19.4594C26.154 19.4594 26.154 19.4594 26.154 19.4594C26.154 19.4594 26.154 19.4594 26.154 19.4594C26.1539 19.4594 26.1539 19.4594 26.1539 19.4594C26.1539 19.4594 26.1539 19.4594 26.1539 19.4594C26.1539 19.4594 26.1539 19.4594 26.1539 19.4594C26.1539 19.4594 26.1539 19.4594 26.1539 19.4594C26.1539 19.4594 26.1539 19.4594 26.1539 19.4594C26.1539 19.4594 26.1538 19.4594 26.1538 19.4594C26.1538 19.4594 26.1538 19.4594 26.1538 19.4594C26.1538 19.4594 26.1538 19.4594 26.1538 19.4594C26.1538 19.4594 26.1538 19.4594 26.1538 19.4594C26.1538 19.4594 26.1538 19.4594 26.1538 19.4594C26.1538 19.4594 26.1537 19.4594 26.1537 19.4594C26.1537 19.4594 26.1537 19.4594 26.1537 19.4594C26.1537 19.4594 26.1537 19.4594 26.1537 19.4594C26.1537 19.4594 26.1537 19.4594 26.1537 19.4594C26.1537 19.4594 26.1537 19.4594 26.1537 19.4594C26.1537 19.4594 26.1536 19.4594 26.1536 19.4594C26.1536 19.4594 26.1536 19.4594 26.1536 19.4594C26.1536 19.4594 26.1536 19.4594 26.1536 19.4594C26.1536 19.4594 26.1536 19.4594 26.1536 19.4594C26.1536 19.4594 26.1536 19.4594 26.1536 19.4594C26.1536 19.4594 26.1535 19.4594 26.1535 19.4594C26.1535 19.4594 26.1535 19.4594 26.1535 19.4594C26.1535 19.4594 26.1535 19.4594 26.1535 19.4594C26.1535 19.4594 26.1535 19.4594 26.1535 19.4594C26.1535 19.4594 26.1535 19.4594 26.1535 19.4594C26.1534 19.4594 26.1534 19.4594 26.1534 19.4594C26.1534 19.4594 26.1534 19.4594 26.1534 19.4594C26.1534 19.4594 26.1534 19.4594 26.1534 19.4594C26.1534 19.4594 26.1534 19.4594 26.1534 19.4594C26.1534 19.4594 26.1534 19.4594 26.1533 19.4594C26.1533 19.4594 26.1533 19.4594 26.1533 19.4594C26.1533 19.4594 26.1533 19.4594 26.1533 19.4594C26.1533 19.4594 26.1533 19.4594 26.1533 19.4594C26.1533 19.4594 26.1533 19.4594 26.1533 19.4594C26.1532 19.4594 26.1532 19.4594 26.1532 19.4594C26.1532 19.4594 26.1532 19.4594 26.1532 19.4594C26.1532 19.4594 26.1532 19.4594 26.1532 19.4594C26.1532 19.4594 26.1532 19.4594 26.1532 19.4594C26.1532 19.4594 26.1531 19.4594 26.1531 19.4594C26.1531 19.4594 26.1531 19.4594 26.1531 19.4594C26.1531 19.4594 26.1531 19.4594 26.1531 19.4594C26.1531 19.4594 26.1531 19.4594 26.1531 19.4594C26.1531 19.4594 26.1531 19.4594 26.153 19.4594C26.153 19.4594 26.153 19.4594 26.153 19.4594C26.153 19.4594 26.153 19.4594 26.153 19.4594C26.153 19.4594 26.153 19.4594 26.153 19.4594C26.153 19.4594 26.153 19.4594 26.153 19.4594C26.1529 19.4594 26.1529 19.4594 26.1529 19.4594C26.1529 19.4594 26.1529 19.4594 26.1529 19.4594C26.1529 19.4594 26.1529 19.4594 26.1529 19.4594C26.1529 19.4594 26.1529 19.4594 26.1529 19.4594C26.1528 19.4594 26.1528 19.4594 26.1528 19.4594C26.1528 19.4594 26.1528 19.4594 26.1528 19.4594C26.1528 19.4594 26.1528 19.4594 26.1528 19.4594C26.1528 19.4594 26.1528 19.4594 26.1528 19.4594C26.1527 19.4594 26.1527 19.4594 26.1527 19.4594C26.1527 19.4594 26.1527 19.4594 26.1527 19.4594C26.1527 19.4594 26.1527 19.4594 26.1527 19.4594C26.1527 19.4594 26.1527 19.4594 26.1527 19.4594C26.1526 19.4594 26.1526 19.4594 26.1526 19.4594C26.1526 19.4594 26.1526 19.4594 26.1526 19.4594C26.1526 19.4594 26.1526 19.4594 26.1526 19.4594C26.1526 19.4594 26.1526 19.4594 26.1526 19.4594C26.1525 19.4594 26.1525 19.4594 26.1525 19.4594C26.1525 19.4594 26.1525 19.4594 26.1525 19.4594C26.1525 19.4594 26.1525 19.4594 26.1525 19.4594C26.1525 19.4594 26.1525 19.4594 26.1525 19.4594C26.1524 19.4594 26.1524 19.4594 26.1524 19.4594C26.1524 19.4594 26.1524 19.4594 26.1524 19.4594C26.1524 19.4594 26.1524 19.4594 26.1524 19.4594C26.1524 19.4594 26.1524 19.4594 26.1523 19.4594C26.1523 19.4594 26.1523 19.4594 26.1523 19.4594C26.1523 19.4594 26.1523 19.4594 26.1523 19.4594C26.1523 19.4594 26.1523 19.4594 26.1523 19.4594C26.1523 19.4594 26.1522 19.4594 26.1522 19.4594C26.1522 19.4594 26.1522 19.4594 26.1522 19.4594C26.1522 19.4594 26.1522 19.4594 26.1522 19.4594C26.1522 19.4594 26.1522 19.4594 26.1522 19.4594C26.1521 19.4594 26.1521 19.4594 26.1521 19.4594C26.1521 19.4594 26.1521 19.4594 26.1521 19.4594C26.1521 19.4594 26.1521 19.4594 26.1521 19.4594C26.1521 19.4594 26.1521 19.4594 26.1521 19.4594C26.152 19.4594 26.152 19.4594 26.152 19.4594C26.152 19.4594 26.152 19.4594 26.152 19.4594C26.152 19.4594 26.152 19.4594 26.152 19.4594C26.152 19.4594 26.1519 19.4594 26.1519 19.4594C26.1519 19.4594 26.1519 19.4594 26.1519 19.4594C26.1519 19.4594 26.1519 19.4594 26.1519 19.4594C26.1519 19.4594 26.1519 19.4594 26.1519 19.4594C26.1518 19.4594 26.1518 19.4594 26.1518 19.4594C26.1518 19.4594 26.1518 19.4594 26.1518 19.4594C26.1518 19.4594 26.1518 19.4594 26.1518 19.4594C26.1518 19.4594 26.1518 19.4594 26.1517 19.4594C26.1517 19.4594 26.1517 19.4594 26.1517 19.4594C26.1517 19.4594 26.1517 19.4594 26.1517 19.4594C26.1517 19.4594 26.1517 19.4594 26.1517 19.4594C26.1516 19.4594 26.1516 19.4594 26.1516 19.4594C26.1516 19.4594 26.1516 19.4594 26.1516 19.4594C26.1516 19.4594 26.1516 19.4594 26.1516 19.4594C26.1516 19.4594 26.1516 19.4594 26.1515 19.4594C26.1515 19.4594 26.1515 19.4594 26.1515 19.4594C26.1515 19.4594 26.1515 19.4594 26.1515 19.4594C26.1515 19.4594 26.1515 19.4594 26.1515 19.4594C26.1514 19.4594 26.1514 19.4594 26.1514 19.4594C26.1514 19.4594 26.1514 19.4594 26.1514 19.4594C26.1514 19.4594 26.1514 19.4594 26.1514 19.4594C26.1514 19.4594 26.1513 19.4594 26.1513 19.4594C26.1513 19.4594 26.1513 19.4594 26.1513 19.4594C26.1513 19.4594 26.1513 19.4594 26.1513 19.4594C26.1513 19.4594 26.1513 19.4594 26.1512 19.4594C26.1512 19.4594 26.1512 19.4594 26.1512 19.4594C26.1512 19.4594 26.1512 19.4594 26.1512 19.4594C26.1512 19.4594 26.1512 19.4594 26.1512 19.4594C26.1511 19.4594 26.1511 19.4594 26.1511 19.4594C26.1511 19.4594 26.1511 19.4594 26.1511 19.4594C26.1511 19.4594 26.1511 19.4594 26.1511 19.4594C26.1511 19.4594 26.151 19.4594 26.151 19.4594C26.151 19.4594 26.151 19.4594 26.151 19.4594C26.151 19.4594 26.151 19.4594 26.151 19.4594C26.151 19.4594 26.151 19.4594 26.1509 19.4594C26.1509 19.4594 26.1509 19.4594 26.1509 19.4594C26.1509 19.4594 26.1509 19.4594 26.1509 19.4594C26.1509 19.4594 26.1509 19.4594 26.1509 19.4594C26.1508 19.4594 26.1508 19.4594 26.1508 19.4594C26.1508 19.4594 26.1508 19.4594 26.1508 19.4594C26.1508 19.4594 26.1508 19.4594 26.1508 19.4594C26.1508 19.4594 26.1507 19.4594 26.1507 19.4594C26.1507 19.4594 26.1507 19.4594 26.1507 19.4594C26.1507 19.4594 26.1507 19.4594 26.1507 19.4594C26.1507 19.4594 26.1507 19.4594 26.1506 19.4594C26.1506 19.4594 26.1506 19.4594 26.1506 19.4594C26.1506 19.4594 26.1506 19.4594 26.1506 19.4594C26.1506 19.4594 26.1506 19.4594 26.1505 19.4594C26.1505 19.4594 26.1505 19.4594 26.1505 19.4594C26.1505 19.4594 26.1505 19.4594 26.1505 19.4594C26.1505 19.4594 26.1505 19.4594 26.1505 19.4594C26.1504 19.4594 26.1504 19.4594 26.1504 19.4594C26.1504 19.4594 26.1504 19.4594 26.1504 19.4594C26.1504 19.4594 26.1504 19.4594 26.1504 19.4594C26.1503 19.4594 26.1503 19.4594 26.1503 19.4594C26.1503 19.4594 26.1503 19.4594 26.1503 19.4594C26.1503 19.4594 26.1503 19.4594 26.1503 19.4594C26.1503 19.4594 26.1502 19.4594 26.1502 19.4594C26.1502 19.4594 26.1502 19.4594 26.1502 19.4594C26.1502 19.4594 26.1502 19.4594 26.1502 19.4594C26.1502 19.4594 26.1501 19.4594 26.1501 19.4594C26.1501 19.4594 26.1501 19.4594 26.1501 19.4594C26.1501 19.4594 26.1501 19.4594 26.1501 19.4594C26.1501 19.4594 26.15 19.4594 26.15 19.4594C26.15 19.4594 26.15 19.4594 26.15 19.4594C26.15 19.4594 26.15 19.4594 26.15 19.4594C26.15 19.4594 26.15 19.4594 26.1499 19.4594C26.1499 19.4594 26.1499 19.4594 26.1499 19.4594C26.1499 19.4594 26.1499 19.4594 26.1499 19.4594C26.1499 19.4594 26.1499 19.4594 26.1498 19.4594C26.1498 19.4594 26.1498 19.4594 26.1498 19.4594C26.1498 19.4594 26.1498 19.4594 26.1498 19.4594C26.1498 19.4594 26.1498 19.4594 26.1497 19.4594C26.1497 19.4594 26.1497 19.4594 26.1497 19.4594C26.1497 19.4594 26.1497 19.4594 26.1497 19.4594C26.1497 19.4594 26.1497 19.4594 26.1496 19.4594C26.1496 19.4594 26.1496 19.4594 26.1496 19.4594C26.1496 19.4594 26.1496 19.4594 26.1496 19.4594C26.1496 19.4594 26.1496 19.4594 26.1495 19.4594C26.1495 19.4594 26.1495 19.4594 26.1495 19.4594C26.1495 19.4594 26.1495 19.4594 26.1495 19.4594C26.1495 19.4594 26.1495 19.4594 26.1495 19.4594C26.1494 19.4594 26.1494 19.4594 26.1494 19.4594C26.1494 19.4594 26.1494 19.4594 26.1494 19.4594C26.1494 19.4594 26.1494 19.4594 26.1494 19.4594C26.1493 19.4594 26.1493 19.4594 26.1493 19.4594C26.1493 19.4594 26.1493 19.4594 26.1493 19.4594C26.1493 19.4594 26.1493 19.4594 26.1493 19.4594C26.1492 19.4594 26.1492 19.4594 26.1492 19.4594C26.1492 19.4594 26.1492 19.4594 26.1492 19.4594C26.1492 19.4594 26.1492 19.4594 26.1492 19.4594C26.1491 19.4594 26.1491 19.4594 26.1491 19.4594C26.1491 19.4594 26.1491 19.4594 26.1491 19.4594C26.1491 19.4594 26.1491 19.4594 26.149 19.4594C26.149 19.4594 26.149 19.4594 26.149 19.4594C26.149 19.4594 26.149 19.4594 26.149 19.4594C26.149 19.4594 26.149 19.4594 26.1489 19.4594C26.1489 19.4594 26.1489 19.4594 26.1489 19.4594C26.1489 19.4594 26.1489 19.4594 26.1489 19.4594C26.1489 19.4594 26.1489 19.4594 26.1488 19.4594C26.1488 19.4594 26.1488 19.4594 26.1488 19.4594C26.1488 19.4594 26.1488 19.4594 26.1488 19.4594C26.1488 19.4594 26.1488 19.4594 26.1487 19.4594C26.1487 19.4594 26.1487 19.4594 26.1487 19.4594C26.1487 19.4594 26.1487 19.4594 26.1487 19.4594C26.1487 19.4594 26.1487 19.4594 26.1486 19.4594C26.1486 19.4594 26.1486 19.4594 26.1486 19.4594C26.1486 19.4594 26.1486 19.4594 26.1486 19.4594C26.1486 19.4594 26.1486 19.4594 26.1485 19.4594C26.1485 19.4594 26.1485 19.4594 26.1485 19.4594C26.1485 19.4594 26.1485 19.4594 26.1485 19.4594C26.1485 19.4594 26.1485 19.4594 26.1484 19.4594C26.1484 19.4594 26.1484 19.4594 26.1484 19.4594C26.1484 19.4594 26.1484 19.4594 26.1484 19.4594C26.1484 19.4594 26.1483 19.4594 26.1483 19.4594C26.1483 19.4594 26.1483 19.4594 26.1483 19.4594C26.1483 19.4594 26.1483 19.4594 26.1483 19.4594C26.1483 19.4594 26.1482 19.4594 26.1482 19.4594C26.1482 19.4594 26.1482 19.4594 26.1482 19.4594C26.1482 19.4594 26.1482 19.4594 26.1482 19.4594C26.1482 19.4594 26.1481 19.4594 26.1481 19.4594C26.1481 19.4594 26.1481 19.4594 26.1481 19.4594C26.1481 19.4594 26.1481 19.4594 26.1481 19.4594C26.1481 19.4594 26.148 19.4594 26.148 19.4594C26.148 19.4594 26.148 19.4594 26.148 19.4594C26.148 19.4594 26.148 19.4594 26.148 19.4594C26.1479 19.4594 26.1479 19.4594 26.1479 19.4594C26.1479 19.4594 26.1479 19.4594 26.1479 19.4594C26.1479 19.4594 26.1479 19.4594 26.1479 19.4594C26.1478 19.4594 26.1478 19.4594 26.1478 19.4594C26.1478 19.4594 26.1478 19.4594 26.1478 19.4594C26.1478 19.4594 26.1478 19.4594 26.1478 19.4594C26.1477 19.4594 26.1477 19.4594 26.1477 19.4594C26.1477 19.4594 26.1477 19.4594 26.1477 19.4594C26.1477 19.4594 26.1477 19.4594 26.1477 19.4594C26.1476 19.4594 26.1476 19.4594 26.1476 19.4594C26.1476 19.4594 26.1476 19.4594 26.1476 19.4594C26.1476 19.4594 26.1476 19.4594 26.1475 19.4594C26.1475 19.4594 26.1475 19.4594 26.1475 19.4594C26.1475 19.4594 26.1475 19.4594 26.1475 19.4594C26.1475 19.4594 26.1475 19.4594 26.1474 19.4594C26.1474 19.4594 26.1474 19.4594 26.1474 19.4594C26.1474 19.4594 26.1474 19.4594 26.1474 19.4594C26.1474 19.4594 26.1474 19.4594 26.1473 19.4594C26.1473 19.4594 26.1473 19.4594 26.1473 19.4594C26.1473 19.4594 26.1473 19.4594 26.1473 19.4594C26.1473 19.4594 26.1472 19.4594 26.1472 19.4594C26.1472 19.4594 26.1472 19.4594 26.1472 19.4594C26.1472 19.4594 26.1472 19.4594 26.1472 19.4594C26.1472 19.4594 26.1471 19.4594 26.1471 19.4594C26.1471 19.4594 26.1471 19.4594 26.1471 19.4594C26.1471 19.4594 26.1471 19.4594 26.1471 19.4594C26.147 19.4594 26.147 19.4594 26.147 19.4594C26.147 19.4594 26.147 19.4594 26.147 19.4594C26.147 19.4594 26.147 19.4594 26.147 19.4594C26.1469 19.4594 26.1469 19.4594 26.1469 19.4594C26.1469 19.4594 26.1469 19.4594 26.1469 19.4594C26.1469 19.4594 26.1469 19.4594 26.1469 19.4594C26.1468 19.4594 26.1468 19.4594 26.1468 19.4594C26.1468 19.4594 26.1468 19.4594 26.1468 19.4594C26.1468 19.4594 26.1468 19.4594 26.1467 19.4594C26.1467 19.4594 26.1467 19.4594 26.1467 19.4594C26.1467 19.4594 26.1467 19.4594 26.1467 19.4594C26.1467 19.4594 26.1467 19.4594 26.1466 19.4594C26.1466 19.4594 26.1466 19.4594 26.1466 19.4594C26.1466 19.4594 26.1466 19.4594 26.1466 19.4594C26.1466 19.4594 26.1466 19.4594 26.1465 19.4594C26.1465 19.4594 26.1465 19.4594 26.1465 19.4594C26.1465 19.4594 26.1465 19.4594 26.1465 19.4594C26.1465 19.4594 26.1464 19.4594 26.1464 19.4594C26.1464 19.4594 26.1464 19.4594 26.1464 19.4594C26.1464 19.4594 26.1464 19.4594 26.1464 19.4594C26.1464 19.4594 26.1463 19.4594 26.1463 19.4594C26.1463 19.4594 26.1463 19.4594 26.1463 19.4594C26.1463 19.4594 26.1463 19.4594 26.1463 19.4594C26.1462 19.4594 26.1462 19.4594 26.1462 19.4594C26.1462 19.4594 26.1462 19.4594 26.1462 19.4594C26.1462 19.4594 26.1462 19.4594 26.1462 19.4594C26.1461 19.4594 26.1461 19.4594 26.1461 19.4594C26.1461 19.4594 26.1461 19.4594 26.1461 19.4594C26.1461 19.4594 26.1461 19.4594 26.1461 19.4594C26.146 19.4594 26.146 19.4594 26.146 19.4594C26.146 19.4594 26.146 19.4594 26.146 19.4594C26.146 19.4594 26.146 19.4594 26.146 19.4594C26.1459 19.4594 26.1459 19.4594 26.1459 19.4594C26.1459 19.4594 26.1459 19.4594 26.1459 19.4594C26.1459 19.4594 26.1459 19.4594 26.1458 19.4594C26.1458 19.4594 26.1458 19.4594 26.1458 19.4594C26.1458 19.4594 26.1458 19.4594 26.1458 19.4594C26.1458 19.4594 26.1458 19.4594 26.1457 19.4594C26.1457 19.4594 26.1457 19.4594 26.1457 19.4594C26.1457 19.4594 26.1457 19.4594 26.1457 19.4594C26.1457 19.4594 26.1457 19.4594 26.1456 19.4594C26.1456 19.4594 26.1456 19.4594 26.1456 19.4594C26.1456 19.4594 26.1456 19.4594 26.1456 19.4594C26.1456 19.4594 26.1455 19.4594 26.1455 19.4594C26.1455 19.4594 26.1455 19.4594 26.1455 19.4594C26.1455 19.4594 26.1455 19.4594 26.1455 19.4594C26.1455 19.4594 26.1454 19.4594 26.1454 19.4594C26.1454 19.4594 26.1454 19.4594 26.1454 19.4594C26.1454 19.4594 26.1454 19.4594 26.1454 19.4594C26.1454 19.4594 26.1453 19.4594 26.1453 19.4594C26.1453 19.4594 26.1453 19.4594 26.1453 19.4594C26.1453 19.4594 26.1453 19.4594 26.1453 19.4594C26.1452 19.4594 26.1452 19.4594 26.1452 19.4594C26.1452 19.4594 26.1452 19.4594 26.1452 19.4594C26.1452 19.4594 26.1452 19.4594 26.1452 19.4594C26.1451 19.4594 26.1451 19.4594 26.1451 19.4594C26.1451 19.4594 26.1451 19.4594 26.1451 19.4594C26.1451 19.4594 26.1451 19.4594 26.1451 19.4594C26.145 19.4594 26.145 19.4594 26.145 19.4594C26.145 19.4594 26.145 19.4594 26.145 19.4594C26.145 19.4594 26.145 19.4594 26.145 19.4594C26.1449 19.4594 26.1449 19.4594 26.1449 19.4594C26.1449 19.4594 26.1449 19.4594 26.1449 19.4594C26.1449 19.4594 26.1449 19.4594 26.1449 19.4594C26.1448 19.4594 26.1448 19.4594 26.1448 19.4594C26.1448 19.4594 26.1448 19.4594 26.1448 19.4594C26.1448 19.4594 26.1448 19.4594 26.1447 19.4594C26.1447 19.4594 26.1447 19.4594 26.1447 19.4594C26.1447 19.4594 26.1447 19.4594 26.1447 19.4594C26.1447 19.4594 26.1447 19.4594 26.1446 19.4594C26.1446 19.4594 26.1446 19.4594 26.1446 19.4594C26.1446 19.4594 26.1446 19.4594 26.1446 19.4594C26.1446 19.4594 26.1446 19.4594 26.1445 19.4594C26.1445 19.4594 26.1445 19.4594 26.1445 19.4594C26.1445 19.4594 26.1445 19.4594 26.1445 19.4594C26.1445 19.4594 26.1445 19.4594 26.1444 19.4594C26.1444 19.4594 26.1444 19.4594 26.1444 19.4594C26.1444 19.4594 26.1444 19.4594 26.1444 19.4594C26.1444 19.4594 26.1444 19.4594 26.1443 19.4594C26.1443 19.4594 26.1443 19.4594 26.1443 19.4594C26.1443 19.4594 26.1443 19.4594 26.1443 19.4594C26.1443 19.4594 26.1443 19.4594 26.1442 19.4594C26.1442 19.4594 26.1442 19.4594 26.1442 19.4594C26.1442 19.4594 26.1442 19.4594 26.1442 19.4594C26.1442 19.4594 26.1442 19.4594 26.1441 19.4594C26.1441 19.4594 26.1441 19.4594 26.1441 19.4594C26.1441 19.4594 26.1441 19.4594 26.1441 19.4594C26.1441 19.4594 26.1441 19.4594 26.144 19.4594C26.144 19.4594 26.144 19.4594 26.144 19.4594C26.144 19.4594 26.144 19.4594 26.144 19.4594C26.144 19.4594 26.144 19.4594 26.1439 19.4594C26.1439 19.4594 26.1439 19.4594 26.1439 19.4594C26.1439 19.4594 26.1439 19.4594 26.1439 19.4594C26.1439 19.4594 26.1439 19.4594 26.1438 19.4594C26.1438 19.4594 26.1438 19.4594 26.1438 19.4594C26.1438 19.4594 26.1438 19.4594 26.1438 19.4594C26.1438 19.4594 26.1438 19.4594 26.1437 19.4594C26.1437 19.4594 26.1437 19.4594 26.1437 19.4594C26.1437 19.4594 26.1437 19.4594 26.1437 19.4594C26.1437 19.4594 26.1437 19.4594 26.1437 19.4594C26.1436 19.4594 26.1436 19.4594 26.1436 19.4594C26.1436 19.4594 26.1436 19.4594 26.1436 19.4594C26.1436 19.4594 26.1436 19.4594 26.1436 19.4594C26.1435 19.4594 26.1435 19.4594 26.1435 19.4594C26.1435 19.4594 26.1435 19.4594 26.1435 19.4594C26.1435 19.4594 26.1435 19.4594 26.1435 19.4594C26.1434 19.4594 26.1434 19.4594 26.1434 19.4594C26.1434 19.4594 26.1434 19.4594 26.1434 19.4594C26.1434 19.4594 26.1434 19.4594 26.1434 19.4594C26.1434 19.4594 26.1433 19.4594 26.1433 19.4594C26.1433 19.4594 26.1433 19.4594 26.1433 19.4594C26.1433 19.4594 26.1433 19.4594 26.1433 19.4594C26.1433 19.4594 26.1432 19.4594 26.1432 19.4594C26.1432 19.4594 26.1432 19.4594 26.1432 19.4594C26.1432 19.4594 26.1432 19.4594 26.1432 19.4594C26.1432 19.4594 26.1431 19.4594 26.1431 19.4594C26.1431 19.4594 26.1431 19.4594 26.1431 19.4594C26.1431 19.4594 26.1431 19.4594 26.1431 19.4594C26.1431 19.4594 26.1431 19.4594 26.143 19.4594C26.143 19.4594 26.143 19.4594 26.143 19.4594C26.143 19.4594 26.143 19.4594 26.143 19.4594C26.143 19.4594 26.143 19.4594 26.1429 19.4594C26.1429 19.4594 26.1429 19.4594 26.1429 19.4594C26.1429 19.4594 26.1429 19.4594 26.1429 19.4594C26.1429 19.4594 26.1429 19.4594 26.1429 19.4594C26.1428 19.4594 26.1428 19.4594 26.1428 19.4594C26.1428 19.4594 26.1428 19.4594 26.1428 19.4594C26.1428 19.4594 26.1428 19.4594 26.1428 19.4594C26.1428 19.4594 26.1427 19.4594 26.1427 19.4594C26.1427 19.4594 26.1427 19.4594 26.1427 19.4594C26.1427 19.4594 26.1427 19.4594 26.1427 19.4594C26.1427 19.4594 26.1426 19.4594 26.1426 19.4594C26.1426 19.4594 26.1426 19.4594 26.1426 19.4594C26.1426 19.4594 26.1426 19.4594 26.1426 19.4594C26.1426 19.4594 26.1426 19.4594 26.1425 19.4594C26.1425 19.4594 26.1425 19.4594 26.1425 19.4594C26.1425 19.4594 26.1425 19.4594 26.1425 19.4594C26.1425 19.4594 26.1425 19.4594 26.1425 19.4594C26.1424 19.4594 26.1424 19.4594 26.1424 19.4594C26.1424 19.4594 26.1424 19.4594 26.1424 19.4594C26.1424 19.4594 26.1424 19.4594 26.1424 19.4594C26.1424 19.4594 26.1423 19.4594 26.1423 19.4594C26.1423 19.4594 26.1423 19.4594 26.1423 19.4594C26.1423 19.4594 26.1423 19.4594 26.1423 19.4594C26.1423 19.4594 26.1423 19.4594 26.1422 19.4594C26.1422 19.4594 26.1422 19.4594 26.1422 19.4594C26.1422 19.4594 26.1422 19.4594 26.1422 19.4594C26.1422 19.4594 26.1422 19.4594 26.1422 19.4594C26.1421 19.4594 26.1421 19.4594 26.1421 19.4594C26.1421 19.4594 26.1421 19.4594 26.1421 19.4594C26.1421 19.4594 26.1421 19.4594 26.1421 19.4594C26.1421 19.4594 26.142 19.4594 26.142 19.4594C26.142 19.4594 26.142 19.4594 26.142 19.4594C26.142 19.4594 26.142 19.4594 26.142 19.4594C26.142 19.4594 26.142 19.4594 26.142 19.4594C26.1419 19.4594 26.1419 19.4594 26.1419 19.4594C26.1419 19.4594 26.1419 19.4594 26.1419 19.4594C26.1419 19.4594 26.1419 19.4594 26.1419 19.4594C26.1419 19.4594 26.1418 19.4594 26.1418 19.4594C26.1418 19.4594 26.1418 19.4594 26.1418 19.4594C26.1418 19.4594 26.1418 19.4594 26.1418 19.4594C26.1418 19.4594 26.1418 19.4594 26.1418 19.4594C26.1417 19.4594 26.1417 19.4594 26.1417 19.4594V23.4594C26.1417 23.4594 26.1417 23.4594 26.1418 23.4594C26.1418 23.4594 26.1418 23.4594 26.1418 23.4594C26.1418 23.4594 26.1418 23.4594 26.1418 23.4594C26.1418 23.4594 26.1418 23.4594 26.1418 23.4594C26.1418 23.4594 26.1419 23.4594 26.1419 23.4594C26.1419 23.4594 26.1419 23.4594 26.1419 23.4594C26.1419 23.4594 26.1419 23.4594 26.1419 23.4594C26.1419 23.4594 26.1419 23.4594 26.142 23.4594C26.142 23.4594 26.142 23.4594 26.142 23.4594C26.142 23.4594 26.142 23.4594 26.142 23.4594C26.142 23.4594 26.142 23.4594 26.142 23.4594C26.142 23.4594 26.1421 23.4594 26.1421 23.4594C26.1421 23.4594 26.1421 23.4594 26.1421 23.4594C26.1421 23.4594 26.1421 23.4594 26.1421 23.4594C26.1421 23.4594 26.1421 23.4594 26.1422 23.4594C26.1422 23.4594 26.1422 23.4594 26.1422 23.4594C26.1422 23.4594 26.1422 23.4594 26.1422 23.4594C26.1422 23.4594 26.1422 23.4594 26.1422 23.4594C26.1423 23.4594 26.1423 23.4594 26.1423 23.4594C26.1423 23.4594 26.1423 23.4594 26.1423 23.4594C26.1423 23.4594 26.1423 23.4594 26.1423 23.4594C26.1423 23.4594 26.1424 23.4594 26.1424 23.4594C26.1424 23.4594 26.1424 23.4594 26.1424 23.4594C26.1424 23.4594 26.1424 23.4594 26.1424 23.4594C26.1424 23.4594 26.1424 23.4594 26.1425 23.4594C26.1425 23.4594 26.1425 23.4594 26.1425 23.4594C26.1425 23.4594 26.1425 23.4594 26.1425 23.4594C26.1425 23.4594 26.1425 23.4594 26.1425 23.4594C26.1426 23.4594 26.1426 23.4594 26.1426 23.4594C26.1426 23.4594 26.1426 23.4594 26.1426 23.4594C26.1426 23.4594 26.1426 23.4594 26.1426 23.4594C26.1426 23.4594 26.1427 23.4594 26.1427 23.4594C26.1427 23.4594 26.1427 23.4594 26.1427 23.4594C26.1427 23.4594 26.1427 23.4594 26.1427 23.4594C26.1427 23.4594 26.1428 23.4594 26.1428 23.4594C26.1428 23.4594 26.1428 23.4594 26.1428 23.4594C26.1428 23.4594 26.1428 23.4594 26.1428 23.4594C26.1428 23.4594 26.1428 23.4594 26.1429 23.4594C26.1429 23.4594 26.1429 23.4594 26.1429 23.4594C26.1429 23.4594 26.1429 23.4594 26.1429 23.4594C26.1429 23.4594 26.1429 23.4594 26.1429 23.4594C26.143 23.4594 26.143 23.4594 26.143 23.4594C26.143 23.4594 26.143 23.4594 26.143 23.4594C26.143 23.4594 26.143 23.4594 26.143 23.4594C26.1431 23.4594 26.1431 23.4594 26.1431 23.4594C26.1431 23.4594 26.1431 23.4594 26.1431 23.4594C26.1431 23.4594 26.1431 23.4594 26.1431 23.4594C26.1431 23.4594 26.1432 23.4594 26.1432 23.4594C26.1432 23.4594 26.1432 23.4594 26.1432 23.4594C26.1432 23.4594 26.1432 23.4594 26.1432 23.4594C26.1432 23.4594 26.1433 23.4594 26.1433 23.4594C26.1433 23.4594 26.1433 23.4594 26.1433 23.4594C26.1433 23.4594 26.1433 23.4594 26.1433 23.4594C26.1433 23.4594 26.1434 23.4594 26.1434 23.4594C26.1434 23.4594 26.1434 23.4594 26.1434 23.4594C26.1434 23.4594 26.1434 23.4594 26.1434 23.4594C26.1434 23.4594 26.1434 23.4594 26.1435 23.4594C26.1435 23.4594 26.1435 23.4594 26.1435 23.4594C26.1435 23.4594 26.1435 23.4594 26.1435 23.4594C26.1435 23.4594 26.1435 23.4594 26.1436 23.4594C26.1436 23.4594 26.1436 23.4594 26.1436 23.4594C26.1436 23.4594 26.1436 23.4594 26.1436 23.4594C26.1436 23.4594 26.1436 23.4594 26.1437 23.4594C26.1437 23.4594 26.1437 23.4594 26.1437 23.4594C26.1437 23.4594 26.1437 23.4594 26.1437 23.4594C26.1437 23.4594 26.1437 23.4594 26.1437 23.4594C26.1438 23.4594 26.1438 23.4594 26.1438 23.4594C26.1438 23.4594 26.1438 23.4594 26.1438 23.4594C26.1438 23.4594 26.1438 23.4594 26.1438 23.4594C26.1439 23.4594 26.1439 23.4594 26.1439 23.4594C26.1439 23.4594 26.1439 23.4594 26.1439 23.4594C26.1439 23.4594 26.1439 23.4594 26.1439 23.4594C26.144 23.4594 26.144 23.4594 26.144 23.4594C26.144 23.4594 26.144 23.4594 26.144 23.4594C26.144 23.4594 26.144 23.4594 26.144 23.4594C26.1441 23.4594 26.1441 23.4594 26.1441 23.4594C26.1441 23.4594 26.1441 23.4594 26.1441 23.4594C26.1441 23.4594 26.1441 23.4594 26.1441 23.4594C26.1442 23.4594 26.1442 23.4594 26.1442 23.4594C26.1442 23.4594 26.1442 23.4594 26.1442 23.4594C26.1442 23.4594 26.1442 23.4594 26.1442 23.4594C26.1443 23.4594 26.1443 23.4594 26.1443 23.4594C26.1443 23.4594 26.1443 23.4594 26.1443 23.4594C26.1443 23.4594 26.1443 23.4594 26.1443 23.4594C26.1444 23.4594 26.1444 23.4594 26.1444 23.4594C26.1444 23.4594 26.1444 23.4594 26.1444 23.4594C26.1444 23.4594 26.1444 23.4594 26.1444 23.4594C26.1445 23.4594 26.1445 23.4594 26.1445 23.4594C26.1445 23.4594 26.1445 23.4594 26.1445 23.4594C26.1445 23.4594 26.1445 23.4594 26.1445 23.4594C26.1446 23.4594 26.1446 23.4594 26.1446 23.4594C26.1446 23.4594 26.1446 23.4594 26.1446 23.4594C26.1446 23.4594 26.1446 23.4594 26.1446 23.4594C26.1447 23.4594 26.1447 23.4594 26.1447 23.4594C26.1447 23.4594 26.1447 23.4594 26.1447 23.4594C26.1447 23.4594 26.1447 23.4594 26.1447 23.4594C26.1448 23.4594 26.1448 23.4594 26.1448 23.4594C26.1448 23.4594 26.1448 23.4594 26.1448 23.4594C26.1448 23.4594 26.1448 23.4594 26.1449 23.4594C26.1449 23.4594 26.1449 23.4594 26.1449 23.4594C26.1449 23.4594 26.1449 23.4594 26.1449 23.4594C26.1449 23.4594 26.1449 23.4594 26.145 23.4594C26.145 23.4594 26.145 23.4594 26.145 23.4594C26.145 23.4594 26.145 23.4594 26.145 23.4594C26.145 23.4594 26.145 23.4594 26.1451 23.4594C26.1451 23.4594 26.1451 23.4594 26.1451 23.4594C26.1451 23.4594 26.1451 23.4594 26.1451 23.4594C26.1451 23.4594 26.1451 23.4594 26.1452 23.4594C26.1452 23.4594 26.1452 23.4594 26.1452 23.4594C26.1452 23.4594 26.1452 23.4594 26.1452 23.4594C26.1452 23.4594 26.1452 23.4594 26.1453 23.4594C26.1453 23.4594 26.1453 23.4594 26.1453 23.4594C26.1453 23.4594 26.1453 23.4594 26.1453 23.4594C26.1453 23.4594 26.1454 23.4594 26.1454 23.4594C26.1454 23.4594 26.1454 23.4594 26.1454 23.4594C26.1454 23.4594 26.1454 23.4594 26.1454 23.4594C26.1454 23.4594 26.1455 23.4594 26.1455 23.4594C26.1455 23.4594 26.1455 23.4594 26.1455 23.4594C26.1455 23.4594 26.1455 23.4594 26.1455 23.4594C26.1455 23.4594 26.1456 23.4594 26.1456 23.4594C26.1456 23.4594 26.1456 23.4594 26.1456 23.4594C26.1456 23.4594 26.1456 23.4594 26.1456 23.4594C26.1457 23.4594 26.1457 23.4594 26.1457 23.4594C26.1457 23.4594 26.1457 23.4594 26.1457 23.4594C26.1457 23.4594 26.1457 23.4594 26.1457 23.4594C26.1458 23.4594 26.1458 23.4594 26.1458 23.4594C26.1458 23.4594 26.1458 23.4594 26.1458 23.4594C26.1458 23.4594 26.1458 23.4594 26.1458 23.4594C26.1459 23.4594 26.1459 23.4594 26.1459 23.4594C26.1459 23.4594 26.1459 23.4594 26.1459 23.4594C26.1459 23.4594 26.1459 23.4594 26.146 23.4594C26.146 23.4594 26.146 23.4594 26.146 23.4594C26.146 23.4594 26.146 23.4594 26.146 23.4594C26.146 23.4594 26.146 23.4594 26.1461 23.4594C26.1461 23.4594 26.1461 23.4594 26.1461 23.4594C26.1461 23.4594 26.1461 23.4594 26.1461 23.4594C26.1461 23.4594 26.1461 23.4594 26.1462 23.4594C26.1462 23.4594 26.1462 23.4594 26.1462 23.4594C26.1462 23.4594 26.1462 23.4594 26.1462 23.4594C26.1462 23.4594 26.1462 23.4594 26.1463 23.4594C26.1463 23.4594 26.1463 23.4594 26.1463 23.4594C26.1463 23.4594 26.1463 23.4594 26.1463 23.4594C26.1463 23.4594 26.1464 23.4594 26.1464 23.4594C26.1464 23.4594 26.1464 23.4594 26.1464 23.4594C26.1464 23.4594 26.1464 23.4594 26.1464 23.4594C26.1464 23.4594 26.1465 23.4594 26.1465 23.4594C26.1465 23.4594 26.1465 23.4594 26.1465 23.4594C26.1465 23.4594 26.1465 23.4594 26.1465 23.4594C26.1466 23.4594 26.1466 23.4594 26.1466 23.4594C26.1466 23.4594 26.1466 23.4594 26.1466 23.4594C26.1466 23.4594 26.1466 23.4594 26.1466 23.4594C26.1467 23.4594 26.1467 23.4594 26.1467 23.4594C26.1467 23.4594 26.1467 23.4594 26.1467 23.4594C26.1467 23.4594 26.1467 23.4594 26.1467 23.4594C26.1468 23.4594 26.1468 23.4594 26.1468 23.4594C26.1468 23.4594 26.1468 23.4594 26.1468 23.4594C26.1468 23.4594 26.1468 23.4594 26.1469 23.4594C26.1469 23.4594 26.1469 23.4594 26.1469 23.4594C26.1469 23.4594 26.1469 23.4594 26.1469 23.4594C26.1469 23.4594 26.1469 23.4594 26.147 23.4594C26.147 23.4594 26.147 23.4594 26.147 23.4594C26.147 23.4594 26.147 23.4594 26.147 23.4594C26.147 23.4594 26.147 23.4594 26.1471 23.4594C26.1471 23.4594 26.1471 23.4594 26.1471 23.4594C26.1471 23.4594 26.1471 23.4594 26.1471 23.4594C26.1471 23.4594 26.1472 23.4594 26.1472 23.4594C26.1472 23.4594 26.1472 23.4594 26.1472 23.4594C26.1472 23.4594 26.1472 23.4594 26.1472 23.4594C26.1472 23.4594 26.1473 23.4594 26.1473 23.4594C26.1473 23.4594 26.1473 23.4594 26.1473 23.4594C26.1473 23.4594 26.1473 23.4594 26.1473 23.4594C26.1474 23.4594 26.1474 23.4594 26.1474 23.4594C26.1474 23.4594 26.1474 23.4594 26.1474 23.4594C26.1474 23.4594 26.1474 23.4594 26.1474 23.4594C26.1475 23.4594 26.1475 23.4594 26.1475 23.4594C26.1475 23.4594 26.1475 23.4594 26.1475 23.4594C26.1475 23.4594 26.1475 23.4594 26.1475 23.4594C26.1476 23.4594 26.1476 23.4594 26.1476 23.4594C26.1476 23.4594 26.1476 23.4594 26.1476 23.4594C26.1476 23.4594 26.1476 23.4594 26.1477 23.4594C26.1477 23.4594 26.1477 23.4594 26.1477 23.4594C26.1477 23.4594 26.1477 23.4594 26.1477 23.4594C26.1477 23.4594 26.1477 23.4594 26.1478 23.4594C26.1478 23.4594 26.1478 23.4594 26.1478 23.4594C26.1478 23.4594 26.1478 23.4594 26.1478 23.4594C26.1478 23.4594 26.1478 23.4594 26.1479 23.4594C26.1479 23.4594 26.1479 23.4594 26.1479 23.4594C26.1479 23.4594 26.1479 23.4594 26.1479 23.4594C26.1479 23.4594 26.1479 23.4594 26.148 23.4594C26.148 23.4594 26.148 23.4594 26.148 23.4594C26.148 23.4594 26.148 23.4594 26.148 23.4594C26.148 23.4594 26.1481 23.4594 26.1481 23.4594C26.1481 23.4594 26.1481 23.4594 26.1481 23.4594C26.1481 23.4594 26.1481 23.4594 26.1481 23.4594C26.1481 23.4594 26.1482 23.4594 26.1482 23.4594C26.1482 23.4594 26.1482 23.4594 26.1482 23.4594C26.1482 23.4594 26.1482 23.4594 26.1482 23.4594C26.1482 23.4594 26.1483 23.4594 26.1483 23.4594C26.1483 23.4594 26.1483 23.4594 26.1483 23.4594C26.1483 23.4594 26.1483 23.4594 26.1483 23.4594C26.1483 23.4594 26.1484 23.4594 26.1484 23.4594C26.1484 23.4594 26.1484 23.4594 26.1484 23.4594C26.1484 23.4594 26.1484 23.4594 26.1484 23.4594C26.1485 23.4594 26.1485 23.4594 26.1485 23.4594C26.1485 23.4594 26.1485 23.4594 26.1485 23.4594C26.1485 23.4594 26.1485 23.4594 26.1485 23.4594C26.1486 23.4594 26.1486 23.4594 26.1486 23.4594C26.1486 23.4594 26.1486 23.4594 26.1486 23.4594C26.1486 23.4594 26.1486 23.4594 26.1486 23.4594C26.1487 23.4594 26.1487 23.4594 26.1487 23.4594C26.1487 23.4594 26.1487 23.4594 26.1487 23.4594C26.1487 23.4594 26.1487 23.4594 26.1487 23.4594C26.1488 23.4594 26.1488 23.4594 26.1488 23.4594C26.1488 23.4594 26.1488 23.4594 26.1488 23.4594C26.1488 23.4594 26.1488 23.4594 26.1488 23.4594C26.1489 23.4594 26.1489 23.4594 26.1489 23.4594C26.1489 23.4594 26.1489 23.4594 26.1489 23.4594C26.1489 23.4594 26.1489 23.4594 26.1489 23.4594C26.149 23.4594 26.149 23.4594 26.149 23.4594C26.149 23.4594 26.149 23.4594 26.149 23.4594C26.149 23.4594 26.149 23.4594 26.149 23.4594C26.1491 23.4594 26.1491 23.4594 26.1491 23.4594C26.1491 23.4594 26.1491 23.4594 26.1491 23.4594C26.1491 23.4594 26.1491 23.4594 26.1492 23.4594C26.1492 23.4594 26.1492 23.4594 26.1492 23.4594C26.1492 23.4594 26.1492 23.4594 26.1492 23.4594C26.1492 23.4594 26.1492 23.4594 26.1493 23.4594C26.1493 23.4594 26.1493 23.4594 26.1493 23.4594C26.1493 23.4594 26.1493 23.4594 26.1493 23.4594C26.1493 23.4594 26.1493 23.4594 26.1494 23.4594C26.1494 23.4594 26.1494 23.4594 26.1494 23.4594C26.1494 23.4594 26.1494 23.4594 26.1494 23.4594C26.1494 23.4594 26.1494 23.4594 26.1495 23.4594C26.1495 23.4594 26.1495 23.4594 26.1495 23.4594C26.1495 23.4594 26.1495 23.4594 26.1495 23.4594C26.1495 23.4594 26.1495 23.4594 26.1495 23.4594C26.1496 23.4594 26.1496 23.4594 26.1496 23.4594C26.1496 23.4594 26.1496 23.4594 26.1496 23.4594C26.1496 23.4594 26.1496 23.4594 26.1496 23.4594C26.1497 23.4594 26.1497 23.4594 26.1497 23.4594C26.1497 23.4594 26.1497 23.4594 26.1497 23.4594C26.1497 23.4594 26.1497 23.4594 26.1497 23.4594C26.1498 23.4594 26.1498 23.4594 26.1498 23.4594C26.1498 23.4594 26.1498 23.4594 26.1498 23.4594C26.1498 23.4594 26.1498 23.4594 26.1498 23.4594C26.1499 23.4594 26.1499 23.4594 26.1499 23.4594C26.1499 23.4594 26.1499 23.4594 26.1499 23.4594C26.1499 23.4594 26.1499 23.4594 26.1499 23.4594C26.15 23.4594 26.15 23.4594 26.15 23.4594C26.15 23.4594 26.15 23.4594 26.15 23.4594C26.15 23.4594 26.15 23.4594 26.15 23.4594C26.15 23.4594 26.1501 23.4594 26.1501 23.4594C26.1501 23.4594 26.1501 23.4594 26.1501 23.4594C26.1501 23.4594 26.1501 23.4594 26.1501 23.4594C26.1501 23.4594 26.1502 23.4594 26.1502 23.4594C26.1502 23.4594 26.1502 23.4594 26.1502 23.4594C26.1502 23.4594 26.1502 23.4594 26.1502 23.4594C26.1502 23.4594 26.1503 23.4594 26.1503 23.4594C26.1503 23.4594 26.1503 23.4594 26.1503 23.4594C26.1503 23.4594 26.1503 23.4594 26.1503 23.4594C26.1503 23.4594 26.1503 23.4594 26.1504 23.4594C26.1504 23.4594 26.1504 23.4594 26.1504 23.4594C26.1504 23.4594 26.1504 23.4594 26.1504 23.4594C26.1504 23.4594 26.1504 23.4594 26.1505 23.4594C26.1505 23.4594 26.1505 23.4594 26.1505 23.4594C26.1505 23.4594 26.1505 23.4594 26.1505 23.4594C26.1505 23.4594 26.1505 23.4594 26.1505 23.4594C26.1506 23.4594 26.1506 23.4594 26.1506 23.4594C26.1506 23.4594 26.1506 23.4594 26.1506 23.4594C26.1506 23.4594 26.1506 23.4594 26.1506 23.4594C26.1507 23.4594 26.1507 23.4594 26.1507 23.4594C26.1507 23.4594 26.1507 23.4594 26.1507 23.4594C26.1507 23.4594 26.1507 23.4594 26.1507 23.4594C26.1507 23.4594 26.1508 23.4594 26.1508 23.4594C26.1508 23.4594 26.1508 23.4594 26.1508 23.4594C26.1508 23.4594 26.1508 23.4594 26.1508 23.4594C26.1508 23.4594 26.1508 23.4594 26.1509 23.4594C26.1509 23.4594 26.1509 23.4594 26.1509 23.4594C26.1509 23.4594 26.1509 23.4594 26.1509 23.4594C26.1509 23.4594 26.1509 23.4594 26.1509 23.4594C26.151 23.4594 26.151 23.4594 26.151 23.4594C26.151 23.4594 26.151 23.4594 26.151 23.4594C26.151 23.4594 26.151 23.4594 26.151 23.4594C26.151 23.4594 26.1511 23.4594 26.1511 23.4594C26.1511 23.4594 26.1511 23.4594 26.1511 23.4594C26.1511 23.4594 26.1511 23.4594 26.1511 23.4594C26.1511 23.4594 26.1511 23.4594 26.1512 23.4594C26.1512 23.4594 26.1512 23.4594 26.1512 23.4594C26.1512 23.4594 26.1512 23.4594 26.1512 23.4594C26.1512 23.4594 26.1512 23.4594 26.1512 23.4594C26.1513 23.4594 26.1513 23.4594 26.1513 23.4594C26.1513 23.4594 26.1513 23.4594 26.1513 23.4594C26.1513 23.4594 26.1513 23.4594 26.1513 23.4594C26.1513 23.4594 26.1514 23.4594 26.1514 23.4594C26.1514 23.4594 26.1514 23.4594 26.1514 23.4594C26.1514 23.4594 26.1514 23.4594 26.1514 23.4594C26.1514 23.4594 26.1514 23.4594 26.1515 23.4594C26.1515 23.4594 26.1515 23.4594 26.1515 23.4594C26.1515 23.4594 26.1515 23.4594 26.1515 23.4594C26.1515 23.4594 26.1515 23.4594 26.1515 23.4594C26.1516 23.4594 26.1516 23.4594 26.1516 23.4594C26.1516 23.4594 26.1516 23.4594 26.1516 23.4594C26.1516 23.4594 26.1516 23.4594 26.1516 23.4594C26.1516 23.4594 26.1516 23.4594 26.1517 23.4594C26.1517 23.4594 26.1517 23.4594 26.1517 23.4594C26.1517 23.4594 26.1517 23.4594 26.1517 23.4594C26.1517 23.4594 26.1517 23.4594 26.1517 23.4594C26.1518 23.4594 26.1518 23.4594 26.1518 23.4594C26.1518 23.4594 26.1518 23.4594 26.1518 23.4594C26.1518 23.4594 26.1518 23.4594 26.1518 23.4594C26.1518 23.4594 26.1518 23.4594 26.1519 23.4594C26.1519 23.4594 26.1519 23.4594 26.1519 23.4594C26.1519 23.4594 26.1519 23.4594 26.1519 23.4594C26.1519 23.4594 26.1519 23.4594 26.1519 23.4594C26.1519 23.4594 26.152 23.4594 26.152 23.4594C26.152 23.4594 26.152 23.4594 26.152 23.4594C26.152 23.4594 26.152 23.4594 26.152 23.4594C26.152 23.4594 26.152 23.4594 26.1521 23.4594C26.1521 23.4594 26.1521 23.4594 26.1521 23.4594C26.1521 23.4594 26.1521 23.4594 26.1521 23.4594C26.1521 23.4594 26.1521 23.4594 26.1521 23.4594C26.1521 23.4594 26.1521 23.4594 26.1522 23.4594C26.1522 23.4594 26.1522 23.4594 26.1522 23.4594C26.1522 23.4594 26.1522 23.4594 26.1522 23.4594C26.1522 23.4594 26.1522 23.4594 26.1522 23.4594C26.1522 23.4594 26.1523 23.4594 26.1523 23.4594C26.1523 23.4594 26.1523 23.4594 26.1523 23.4594C26.1523 23.4594 26.1523 23.4594 26.1523 23.4594C26.1523 23.4594 26.1523 23.4594 26.1523 23.4594C26.1524 23.4594 26.1524 23.4594 26.1524 23.4594C26.1524 23.4594 26.1524 23.4594 26.1524 23.4594C26.1524 23.4594 26.1524 23.4594 26.1524 23.4594C26.1524 23.4594 26.1524 23.4594 26.1525 23.4594C26.1525 23.4594 26.1525 23.4594 26.1525 23.4594C26.1525 23.4594 26.1525 23.4594 26.1525 23.4594C26.1525 23.4594 26.1525 23.4594 26.1525 23.4594C26.1525 23.4594 26.1525 23.4594 26.1526 23.4594C26.1526 23.4594 26.1526 23.4594 26.1526 23.4594C26.1526 23.4594 26.1526 23.4594 26.1526 23.4594C26.1526 23.4594 26.1526 23.4594 26.1526 23.4594C26.1526 23.4594 26.1526 23.4594 26.1527 23.4594C26.1527 23.4594 26.1527 23.4594 26.1527 23.4594C26.1527 23.4594 26.1527 23.4594 26.1527 23.4594C26.1527 23.4594 26.1527 23.4594 26.1527 23.4594C26.1527 23.4594 26.1527 23.4594 26.1528 23.4594C26.1528 23.4594 26.1528 23.4594 26.1528 23.4594C26.1528 23.4594 26.1528 23.4594 26.1528 23.4594C26.1528 23.4594 26.1528 23.4594 26.1528 23.4594C26.1528 23.4594 26.1528 23.4594 26.1529 23.4594C26.1529 23.4594 26.1529 23.4594 26.1529 23.4594C26.1529 23.4594 26.1529 23.4594 26.1529 23.4594C26.1529 23.4594 26.1529 23.4594 26.1529 23.4594C26.1529 23.4594 26.1529 23.4594 26.153 23.4594C26.153 23.4594 26.153 23.4594 26.153 23.4594C26.153 23.4594 26.153 23.4594 26.153 23.4594C26.153 23.4594 26.153 23.4594 26.153 23.4594C26.153 23.4594 26.153 23.4594 26.153 23.4594C26.1531 23.4594 26.1531 23.4594 26.1531 23.4594C26.1531 23.4594 26.1531 23.4594 26.1531 23.4594C26.1531 23.4594 26.1531 23.4594 26.1531 23.4594C26.1531 23.4594 26.1531 23.4594 26.1531 23.4594C26.1531 23.4594 26.1532 23.4594 26.1532 23.4594C26.1532 23.4594 26.1532 23.4594 26.1532 23.4594C26.1532 23.4594 26.1532 23.4594 26.1532 23.4594C26.1532 23.4594 26.1532 23.4594 26.1532 23.4594C26.1532 23.4594 26.1532 23.4594 26.1533 23.4594C26.1533 23.4594 26.1533 23.4594 26.1533 23.4594C26.1533 23.4594 26.1533 23.4594 26.1533 23.4594C26.1533 23.4594 26.1533 23.4594 26.1533 23.4594C26.1533 23.4594 26.1533 23.4594 26.1533 23.4594C26.1534 23.4594 26.1534 23.4594 26.1534 23.4594C26.1534 23.4594 26.1534 23.4594 26.1534 23.4594C26.1534 23.4594 26.1534 23.4594 26.1534 23.4594C26.1534 23.4594 26.1534 23.4594 26.1534 23.4594C26.1534 23.4594 26.1534 23.4594 26.1535 23.4594C26.1535 23.4594 26.1535 23.4594 26.1535 23.4594C26.1535 23.4594 26.1535 23.4594 26.1535 23.4594C26.1535 23.4594 26.1535 23.4594 26.1535 23.4594C26.1535 23.4594 26.1535 23.4594 26.1535 23.4594C26.1535 23.4594 26.1536 23.4594 26.1536 23.4594C26.1536 23.4594 26.1536 23.4594 26.1536 23.4594C26.1536 23.4594 26.1536 23.4594 26.1536 23.4594C26.1536 23.4594 26.1536 23.4594 26.1536 23.4594C26.1536 23.4594 26.1536 23.4594 26.1536 23.4594C26.1536 23.4594 26.1537 23.4594 26.1537 23.4594C26.1537 23.4594 26.1537 23.4594 26.1537 23.4594C26.1537 23.4594 26.1537 23.4594 26.1537 23.4594C26.1537 23.4594 26.1537 23.4594 26.1537 23.4594C26.1537 23.4594 26.1537 23.4594 26.1537 23.4594C26.1537 23.4594 26.1538 23.4594 26.1538 23.4594C26.1538 23.4594 26.1538 23.4594 26.1538 23.4594C26.1538 23.4594 26.1538 23.4594 26.1538 23.4594C26.1538 23.4594 26.1538 23.4594 26.1538 23.4594C26.1538 23.4594 26.1538 23.4594 26.1538 23.4594C26.1538 23.4594 26.1539 23.4594 26.1539 23.4594C26.1539 23.4594 26.1539 23.4594 26.1539 23.4594C26.1539 23.4594 26.1539 23.4594 26.1539 23.4594C26.1539 23.4594 26.1539 23.4594 26.1539 23.4594C26.1539 23.4594 26.1539 23.4594 26.1539 23.4594C26.1539 23.4594 26.1539 23.4594 26.154 23.4594C26.154 23.4594 26.154 23.4594 26.154 23.4594C26.154 23.4594 26.154 23.4594 26.154 23.4594C26.154 23.4594 26.154 23.4594 26.154 23.4594C26.154 23.4594 26.154 23.4594 26.154 23.4594C26.154 23.4594 26.154 23.4594 26.154 23.4594C26.154 23.4594 26.1541 23.4594 26.1541 23.4594C26.1541 23.4594 26.1541 23.4594 26.1541 23.4594C26.1541 23.4594 26.1541 23.4594 26.1541 23.4594C26.1541 23.4594 26.1541 23.4594 26.1541 23.4594C26.1541 23.4594 26.1541 23.4594 26.1541 23.4594C26.1541 23.4594 26.1541 23.4594 26.1541 23.4594C26.1542 23.4594 26.1542 23.4594 26.1542 23.4594C26.1542 23.4594 26.1542 23.4594 26.1542 23.4594C26.1542 23.4594 26.1542 23.4594 26.1542 23.4594C26.1542 23.4594 26.1542 23.4594 26.1542 23.4594C26.1542 23.4594 26.1542 23.4594 26.1542 23.4594C26.1542 23.4594 26.1542 23.4594 26.1542 23.4594C26.1542 23.4594 26.1543 23.4594 26.1543 23.4594C26.1543 23.4594 26.1543 23.4594 26.1543 23.4594C26.1543 23.4594 26.1543 23.4594 26.1543 23.4594C26.1543 23.4594 26.1543 23.4594 26.1543 23.4594C26.1543 23.4594 26.1543 23.4594 26.1543 23.4594C26.1543 23.4594 26.1543 23.4594 26.1543 23.4594C26.1543 23.4594 26.1543 23.4594 26.1544 23.4594C26.1544 23.4594 26.1544 23.4594 26.1544 23.4594C26.1544 23.4594 26.1544 23.4594 26.1544 23.4594C26.1544 23.4594 26.1544 23.4594 26.1544 23.4594C26.1544 23.4594 26.1544 23.4594 26.1544 23.4594C26.1544 23.4594 26.1544 23.4594 26.1544 23.4594C26.1544 23.4594 26.1544 23.4594 26.1544 23.4594C26.1544 23.4594 26.1544 23.4594 26.1545 23.4594C26.1545 23.4594 26.1545 23.4594 26.1545 23.4594C26.1545 23.4594 26.1545 23.4594 26.1545 23.4594C26.1545 23.4594 26.1545 23.4594 26.1545 23.4594C26.1545 23.4594 26.1545 23.4594 26.1545 23.4594C26.1545 23.4594 26.1545 23.4594 26.1545 23.4594C26.1545 23.4594 26.1545 23.4594 26.1545 23.4594C26.1545 23.4594 26.1545 23.4594 26.1545 23.4594C26.1546 23.4594 26.1546 23.4594 26.1546 23.4594C26.1546 23.4594 26.1546 23.4594 26.1546 23.4594C26.1546 23.4594 26.1546 23.4594 26.1546 23.4594C26.1546 23.4594 26.1546 23.4594 26.1546 23.4594C26.1546 23.4594 26.1546 23.4594 26.1546 23.4594C26.1546 23.4594 26.1546 23.4594 26.1546 23.4594C26.1546 23.4594 26.1546 23.4594 26.1546 23.4594C26.1546 23.4594 26.1546 23.4594 26.1546 23.4594C26.1546 23.4594 26.1547 23.4594 26.1547 23.4594C26.1547 23.4594 26.1547 23.4594 26.1547 23.4594C26.1547 23.4594 26.1547 23.4594 26.1547 23.4594C26.1547 23.4594 26.1547 23.4594 26.1547 23.4594C26.1547 23.4594 26.1547 23.4594 26.1547 23.4594C26.1547 23.4594 26.1547 23.4594 26.1547 23.4594C26.1547 23.4594 26.1547 23.4594 26.1547 23.4594C26.1547 23.4594 26.1547 23.4594 26.1547 23.4594C26.1547 23.4594 26.1547 23.4594 26.1547 23.4594C26.1547 23.4594 26.1548 23.4594 26.1548 23.4594C26.1548 23.4594 26.1548 23.4594 26.1548 23.4594C26.1548 23.4594 26.1548 23.4594 26.1548 23.4594C26.1548 23.4594 26.1548 23.4594 26.1548 23.4594C26.1548 23.4594 26.1548 23.4594 26.1548 23.4594C26.1548 23.4594 26.1548 23.4594 26.1548 23.4594C26.1548 23.4594 26.1548 23.4594 26.1548 23.4594C26.1548 23.4594 26.1548 23.4594 26.1548 23.4594C26.1548 23.4594 26.1548 23.4594 26.1548 23.4594C26.1548 23.4594 26.1548 23.4594 26.1548 23.4594C26.1548 23.4594 26.1548 23.4594 26.1548 23.4594C26.1548 23.4594 26.1549 23.4594 26.1549 23.4594C26.1549 23.4594 26.1549 23.4594 26.1549 23.4594C26.1549 23.4594 26.1549 23.4594 26.1549 23.4594C26.1549 23.4594 26.1549 23.4594 26.1549 23.4594C26.1549 23.4594 26.1549 23.4594 26.1549 23.4594C26.1549 23.4594 26.1549 23.4594 26.1549 23.4594C26.1549 23.4594 26.1549 23.4594 26.1549 23.4594C26.1549 23.4594 26.1549 23.4594 26.1549 23.4594C26.1549 23.4594 26.1549 23.4594 26.1549 23.4594C26.1549 23.4594 26.1549 23.4594 26.1549 23.4594C26.1549 23.4594 26.1549 23.4594 26.1549 23.4594C26.1549 23.4594 26.1549 23.4594 26.1549 23.4594C26.1549 23.4594 26.1549 23.4594 26.1549 23.4594C26.1549 23.4594 26.1549 23.4594 26.1549 23.4594C26.1549 23.4594 26.1549 23.4594 26.155 23.4594C26.155 23.4594 26.155 23.4594 26.155 23.4594C26.155 23.4594 26.155 23.4594 26.155 23.4594C26.155 23.4594 26.155 23.4594 26.155 23.4594C26.155 23.4594 26.155 23.4594 26.155 23.4594C26.155 23.4594 26.155 23.4594 26.155 23.4594C26.155 23.4594 26.155 23.4594 26.155 23.4594C26.155 23.4594 26.155 23.4594 26.155 23.4594C26.155 23.4594 26.155 23.4594 26.155 23.4594C26.155 23.4594 26.155 23.4594 26.155 23.4594C26.155 23.4594 26.155 23.4594 26.155 23.4594C26.155 23.4594 26.155 23.4594 26.155 23.4594H26.155C26.155 23.4594 26.155 23.4594 26.155 23.4594C26.155 23.4594 26.155 23.4594 26.155 23.4594C26.155 23.4594 26.155 23.4594 26.155 23.4594H26.155C26.155 23.4594 26.155 23.4594 26.155 23.4594H26.155H26.155C26.155 23.4594 26.155 23.4594 26.155 23.4594C26.155 23.4594 26.155 23.4594 26.155 23.4594C26.155 23.4594 26.155 23.4594 26.155 23.4594C26.155 23.4594 26.155 23.4594 26.155 23.4594C26.155 23.4594 26.155 23.4594 26.155 23.4594H26.155H26.155C26.155 23.4594 26.155 23.4594 26.155 21.4594ZM26.9592 19.6341L21.2678 17.0851L19.6328 20.7357L25.3242 23.2847L26.9592 19.6341ZM19.1546 17.3869L16.2059 19.8947L18.7974 22.9417L21.7461 20.4339L19.1546 17.3869ZM16.2089 19.8922C16.2363 19.869 16.2649 19.8473 16.2947 19.8273L18.5295 23.1448C18.6214 23.0828 18.7099 23.0159 18.7944 22.9443L16.2089 19.8922ZM16.3021 19.8223C16.3111 19.8163 16.3215 19.8127 16.3323 19.812L16.6211 23.8015C17.3004 23.7523 17.9554 23.5278 18.522 23.1498L16.3021 19.8223ZM16.3323 19.812C16.3431 19.8112 16.3539 19.8132 16.3636 19.8179L14.6461 23.4303C15.2612 23.7228 15.9417 23.8507 16.6211 23.8015L16.3323 19.812ZM16.375 19.8233C14.5067 18.9205 12.5741 16.9996 11.6756 15.162L8.08209 16.9189C9.37782 19.569 11.9669 22.1358 14.6347 23.4249L16.375 19.8233ZM11.6794 15.1699C11.6841 15.1796 11.6862 15.1903 11.6855 15.2011L7.69362 14.9468C7.65051 15.6237 7.78299 16.3003 8.07823 16.911L11.6794 15.1699ZM11.6855 15.2011C11.6848 15.2118 11.6814 15.2222 11.6755 15.2312L8.32432 13.0473C7.95399 13.6156 7.73674 14.2699 7.69362 14.9468L11.6855 15.2011ZM11.6955 15.2C11.6607 15.2556 11.6216 15.3085 11.5785 15.358L8.55936 12.7341C8.46553 12.8421 8.38027 12.9572 8.30437 13.0786L11.6955 15.2ZM11.5978 15.3354L14.1214 12.3432L11.0637 9.76439L8.54009 12.7566L11.5978 15.3354ZM14.4186 10.2379L11.8756 4.54652L8.22355 6.17828L10.7665 11.8697L14.4186 10.2379ZM12.0399 5.16568C12.0523 5.29168 12.0523 5.41859 12.0399 5.54459L8.05927 5.15115C8.04586 5.28681 8.04586 5.42346 8.05927 5.55912L12.0399 5.16568ZM9.79087 3.36467C8.13411 3.58079 6.61295 4.39344 5.51225 5.65043L8.52158 8.28557C8.98121 7.76067 9.61643 7.42132 10.3083 7.33107L9.79087 3.36467ZM5.51225 5.65043C4.41156 6.90743 3.80682 8.52255 3.8113 10.1933L7.81128 10.1826C7.80941 9.48493 8.06194 8.81047 8.52158 8.28557L5.51225 5.65043ZM3.81129 10.1902C3.81636 14.8293 5.6615 19.277 8.94188 22.5574L11.7703 19.729C9.239 17.1977 7.8152 13.7656 7.81129 10.1858L3.81129 10.1902ZM8.94188 22.5574C12.2223 25.8378 16.67 27.6829 21.3091 27.688L21.3135 23.688C17.7337 23.6841 14.3016 22.2603 11.7703 19.729L8.94188 22.5574ZM21.3044 27.688C22.9741 27.6937 24.5886 27.0911 25.8463 25.9929L23.2152 22.98C22.6899 23.4387 22.0156 23.6904 21.3182 23.688L21.3044 27.688ZM25.8463 25.9929C27.1039 24.8947 27.9185 23.376 28.1377 21.7208L24.1724 21.1956C24.0808 21.8869 23.7405 22.5213 23.2152 22.98L25.8463 25.9929ZM24.155 21.4582V21.4594H28.155V21.4582H24.155Z" fill="#38B6FF" mask="url(#path-1-inside-1_8833_4323)"/>
</g>
</g>
</svg>
