<svg xmlns="http://www.w3.org/2000/svg" width="32" height="33" viewBox="0 0 32 33" fill="none">
  <path d="M16 3.42871C13.4289 3.42871 10.9154 4.19115 8.77759 5.61961C6.63975 7.04806 4.97351 9.07839 3.98957 11.4538C3.00563 13.8293 2.74819 16.4431 3.2498 18.9649C3.75141 21.4866 4.98954 23.803 6.80762 25.6211C8.6257 27.4392 10.9421 28.6773 13.4638 29.1789C15.9856 29.6805 18.5995 29.4231 20.9749 28.4391C23.3503 27.4552 25.3807 25.789 26.8091 23.6511C28.2376 21.5133 29 18.9999 29 16.4287C28.9961 12.9821 27.6252 9.67776 25.1881 7.24063C22.751 4.8035 19.4466 3.43261 16 3.42871ZM16.0001 24.4288C15.7034 24.4288 15.4134 24.3408 15.1667 24.176C14.92 24.0111 14.7278 23.7769 14.6143 23.5028C14.5007 23.2287 14.471 22.9271 14.5289 22.6361C14.5868 22.3452 14.7296 22.0779 14.9394 21.8681C15.1492 21.6583 15.4165 21.5155 15.7074 21.4576C15.9984 21.3997 16.3 21.4294 16.5741 21.5429C16.8482 21.6565 17.0825 21.8487 17.2473 22.0954C17.4121 22.3421 17.5001 22.6321 17.5001 22.9288C17.5001 23.3266 17.342 23.7081 17.0607 23.9894C16.7794 24.2707 16.3979 24.4288 16.0001 24.4288ZM17 18.3174V18.4293C17 18.6945 16.8947 18.9489 16.7071 19.1364C16.5196 19.324 16.2652 19.4293 16 19.4293C15.7348 19.4293 15.4804 19.324 15.2929 19.1364C15.1054 18.9489 15 18.6945 15 18.4293V17.4293C15 17.1641 15.1054 16.9098 15.2929 16.7222C15.4805 16.5347 15.7348 16.4293 16 16.4293C16.4945 16.4293 16.9778 16.2827 17.3889 16.008C17.8001 15.7333 18.1205 15.3428 18.3097 14.886C18.4989 14.4292 18.5484 13.9265 18.452 13.4416C18.3555 12.9566 18.1174 12.5112 17.7678 12.1616C17.4181 11.8119 16.9727 11.5738 16.4877 11.4774C16.0028 11.3809 15.5001 11.4304 15.0433 11.6196C14.5865 11.8088 14.196 12.1293 13.9213 12.5404C13.6466 12.9515 13.5 13.4349 13.5 13.9293C13.5 14.1945 13.3947 14.4489 13.2071 14.6364C13.0196 14.824 12.7652 14.9293 12.5 14.9293C12.2348 14.9293 11.9804 14.824 11.7929 14.6364C11.6054 14.4489 11.5 14.1945 11.5 13.9293C11.5001 13.0822 11.7393 12.2524 12.1901 11.5352C12.6409 10.818 13.285 10.2426 14.0482 9.8752C14.8115 9.50779 15.663 9.36329 16.5047 9.45829C17.3465 9.5533 18.1443 9.88397 18.8065 10.4123C19.4687 10.9406 19.9683 11.645 20.2478 12.4447C20.5274 13.2443 20.5756 14.1066 20.3869 14.9324C20.1982 15.7582 19.7802 16.514 19.1811 17.1128C18.5819 17.7116 17.8259 18.1291 17 18.3174Z" fill="#38B6FF"/>
</svg>