<svg width="364" height="436" viewBox="0 0 364 436" fill="none" xmlns="http://www.w3.org/2000/svg">
<g filter="url(#filter0_d_40000028_5552)">
<path d="M32 36C32 31.5817 35.5817 28 40 28H324C328.418 28 332 31.5817 332 36V400H40C35.5817 400 32 396.418 32 392V36Z" fill="#38B6FF"/>
<path opacity="0.6" d="M32 178C51.6983 178 71.2037 174.12 89.4025 166.582C107.601 159.044 124.137 147.995 138.066 134.066C151.995 120.137 163.044 103.601 170.582 85.4025C178.12 67.2037 182 47.6983 182 28H32L32 178Z" fill="#60C5FF"/>
<path d="M124.584 115.021H90.5923L86.836 125.539C86.3089 127.015 84.911 128 83.3439 128H75.7683C73.204 128 71.4137 125.46 72.2762 123.045L75.1416 115.021H66.1803C62.767 115.021 60 112.254 60 108.841C60 105.428 62.767 102.661 66.1803 102.661H120.567L110.778 75.1597C109.707 72.1512 105.454 72.146 104.376 75.1519L97.3906 94.6266H76.9957C73.7531 94.6266 71.1245 91.998 71.1245 88.7554C71.1245 85.5128 73.7531 82.8841 76.9957 82.8841H86.5751L88.1202 78.2489H85.8026C82.4746 78.2489 79.7768 75.5511 79.7768 72.2232C79.7768 68.8952 82.4746 66.1974 85.8026 66.1974H92.7554C92.7554 66.1974 97.0815 56 107.588 56C115.313 56 121.494 62.4887 123.657 68.669C123.844 69.2051 137.919 108.943 142.926 123.077C143.781 125.491 141.982 128 139.422 128H131.832C130.265 128 128.867 127.015 128.34 125.539L124.584 115.021Z" fill="#F1F9FF"/>
<path d="M168.829 77.14C167.803 77.14 166.876 76.9133 166.049 76.46C165.236 75.9933 164.596 75.3533 164.129 74.54C163.663 73.7267 163.429 72.7667 163.429 71.66C163.429 70.5533 163.663 69.5933 164.129 68.78C164.596 67.9667 165.236 67.3333 166.049 66.88C166.876 66.4267 167.803 66.2 168.829 66.2C169.723 66.2 170.523 66.4 171.229 66.8C171.936 67.1867 172.496 67.78 172.909 68.58C173.323 69.38 173.529 70.4067 173.529 71.66C173.529 72.9 173.329 73.9267 172.929 74.74C172.529 75.54 171.976 76.14 171.269 76.54C170.563 76.94 169.749 77.14 168.829 77.14ZM169.129 75C169.729 75 170.263 74.8667 170.729 74.6C171.209 74.3333 171.589 73.9467 171.869 73.44C172.163 72.9333 172.309 72.34 172.309 71.66C172.309 70.9667 172.163 70.3733 171.869 69.88C171.589 69.3733 171.209 68.9867 170.729 68.72C170.263 68.4533 169.729 68.32 169.129 68.32C168.529 68.32 167.989 68.4533 167.509 68.72C167.043 68.9867 166.663 69.3733 166.369 69.88C166.089 70.3733 165.949 70.9667 165.949 71.66C165.949 72.34 166.089 72.9333 166.369 73.44C166.663 73.9467 167.043 74.3333 167.509 74.6C167.989 74.8667 168.529 75 169.129 75ZM172.369 77V74.48L172.469 71.64L172.269 68.8V62.16H174.749V77H172.369ZM168.329 65.1V63.46H176.409V65.1H168.329ZM177.24 77V66.32H179.74V77H177.24ZM178.5 64.56C178.033 64.56 177.647 64.4133 177.34 64.12C177.047 63.8267 176.9 63.4733 176.9 63.06C176.9 62.6333 177.047 62.28 177.34 62C177.647 61.7067 178.033 61.56 178.5 61.56C178.967 61.56 179.347 61.7 179.64 61.98C179.947 62.2467 180.1 62.5867 180.1 63C180.1 63.44 179.953 63.8133 179.66 64.12C179.367 64.4133 178.98 64.56 178.5 64.56ZM191.848 77.14C190.728 77.14 189.728 76.9067 188.848 76.44C187.982 75.96 187.302 75.3067 186.808 74.48C186.315 73.6533 186.068 72.7133 186.068 71.66C186.068 70.5933 186.315 69.6533 186.808 68.84C187.302 68.0133 187.982 67.3667 188.848 66.9C189.728 66.4333 190.728 66.2 191.848 66.2C192.888 66.2 193.802 66.4133 194.588 66.84C195.388 67.2533 195.995 67.8667 196.408 68.68L194.488 69.8C194.168 69.2933 193.775 68.92 193.308 68.68C192.855 68.44 192.362 68.32 191.828 68.32C191.215 68.32 190.662 68.4533 190.168 68.72C189.675 68.9867 189.288 69.3733 189.008 69.88C188.728 70.3733 188.588 70.9667 188.588 71.66C188.588 72.3533 188.728 72.9533 189.008 73.46C189.288 73.9533 189.675 74.3333 190.168 74.6C190.662 74.8667 191.215 75 191.828 75C192.362 75 192.855 74.88 193.308 74.64C193.775 74.4 194.168 74.0267 194.488 73.52L196.408 74.64C195.995 75.44 195.388 76.06 194.588 76.5C193.802 76.9267 192.888 77.14 191.848 77.14ZM202.29 77.14C201.383 77.14 200.583 76.9733 199.89 76.64C199.196 76.2933 198.656 75.7733 198.27 75.08C197.883 74.3733 197.69 73.4867 197.69 72.42V66.32H200.19V72.08C200.19 73.04 200.403 73.76 200.83 74.24C201.27 74.7067 201.89 74.94 202.69 74.94C203.276 74.94 203.783 74.82 204.21 74.58C204.65 74.34 204.99 73.98 205.23 73.5C205.483 73.02 205.61 72.4267 205.61 71.72V66.32H208.11V77H205.73V74.12L206.15 75C205.79 75.6933 205.263 76.2267 204.57 76.6C203.876 76.96 203.116 77.14 202.29 77.14ZM202.41 64.86L198.93 62.12H201.87L204.57 64.86H202.41ZM216.643 66.2C217.496 66.2 218.256 66.3667 218.923 66.7C219.603 67.0333 220.136 67.5467 220.523 68.24C220.91 68.92 221.103 69.8 221.103 70.88V77H218.603V71.2C218.603 70.2533 218.376 69.5467 217.923 69.08C217.483 68.6133 216.863 68.38 216.063 68.38C215.476 68.38 214.956 68.5 214.503 68.74C214.05 68.98 213.696 69.34 213.443 69.82C213.203 70.2867 213.083 70.88 213.083 71.6V77H210.583V66.32H212.963V69.2L212.543 68.32C212.916 67.64 213.456 67.12 214.163 66.76C214.883 66.3867 215.71 66.2 216.643 66.2ZM228.334 81.02C227.347 81.02 226.38 80.8867 225.434 80.62C224.5 80.3667 223.734 79.9933 223.134 79.5L224.254 77.62C224.72 78.0067 225.307 78.3133 226.014 78.54C226.734 78.78 227.46 78.9 228.194 78.9C229.367 78.9 230.227 78.6267 230.774 78.08C231.32 77.5467 231.594 76.74 231.594 75.66V73.76L231.794 71.34L231.714 68.92V66.32H234.094V75.38C234.094 77.3133 233.6 78.7333 232.614 79.64C231.627 80.56 230.2 81.02 228.334 81.02ZM228.014 76.52C227 76.52 226.08 76.3067 225.254 75.88C224.44 75.44 223.794 74.8333 223.314 74.06C222.847 73.2867 222.614 72.38 222.614 71.34C222.614 70.3133 222.847 69.4133 223.314 68.64C223.794 67.8667 224.44 67.2667 225.254 66.84C226.08 66.4133 227 66.2 228.014 66.2C228.92 66.2 229.734 66.38 230.454 66.74C231.174 67.1 231.747 67.66 232.174 68.42C232.614 69.18 232.834 70.1533 232.834 71.34C232.834 72.5267 232.614 73.5067 232.174 74.28C231.747 75.04 231.174 75.6067 230.454 75.98C229.734 76.34 228.92 76.52 228.014 76.52ZM228.394 74.4C229.02 74.4 229.58 74.2733 230.074 74.02C230.567 73.7533 230.947 73.3933 231.214 72.94C231.494 72.4733 231.634 71.94 231.634 71.34C231.634 70.74 231.494 70.2133 231.214 69.76C230.947 69.2933 230.567 68.94 230.074 68.7C229.58 68.4467 229.02 68.32 228.394 68.32C227.767 68.32 227.2 68.4467 226.694 68.7C226.2 68.94 225.814 69.2933 225.534 69.76C225.267 70.2133 225.134 70.74 225.134 71.34C225.134 71.94 225.267 72.4733 225.534 72.94C225.814 73.3933 226.2 73.7533 226.694 74.02C227.2 74.2733 227.767 74.4 228.394 74.4ZM244.608 77.14C243.715 77.14 242.855 77.0267 242.028 76.8C241.215 76.56 240.568 76.2733 240.088 75.94L241.048 74.04C241.528 74.3467 242.101 74.6 242.768 74.8C243.435 75 244.101 75.1 244.768 75.1C245.555 75.1 246.121 74.9933 246.468 74.78C246.828 74.5667 247.008 74.28 247.008 73.92C247.008 73.6267 246.888 73.4067 246.648 73.26C246.408 73.1 246.095 72.98 245.708 72.9C245.321 72.82 244.888 72.7467 244.408 72.68C243.941 72.6133 243.468 72.5267 242.988 72.42C242.521 72.3 242.095 72.1333 241.708 71.92C241.321 71.6933 241.008 71.3933 240.768 71.02C240.528 70.6467 240.408 70.1533 240.408 69.54C240.408 68.86 240.601 68.2733 240.988 67.78C241.375 67.2733 241.915 66.8867 242.608 66.62C243.315 66.34 244.148 66.2 245.108 66.2C245.828 66.2 246.555 66.28 247.288 66.44C248.021 66.6 248.628 66.8267 249.108 67.12L248.148 69.02C247.641 68.7133 247.128 68.5067 246.608 68.4C246.101 68.28 245.595 68.22 245.088 68.22C244.328 68.22 243.761 68.3333 243.388 68.56C243.028 68.7867 242.848 69.0733 242.848 69.42C242.848 69.74 242.968 69.98 243.208 70.14C243.448 70.3 243.761 70.4267 244.148 70.52C244.535 70.6133 244.961 70.6933 245.428 70.76C245.908 70.8133 246.381 70.9 246.848 71.02C247.315 71.14 247.741 71.3067 248.128 71.52C248.528 71.72 248.848 72.0067 249.088 72.38C249.328 72.7533 249.448 73.24 249.448 73.84C249.448 74.5067 249.248 75.0867 248.848 75.58C248.461 76.0733 247.908 76.46 247.188 76.74C246.468 77.0067 245.608 77.14 244.608 77.14ZM255.321 77.14C254.414 77.14 253.614 76.9733 252.921 76.64C252.228 76.2933 251.688 75.7733 251.301 75.08C250.914 74.3733 250.721 73.4867 250.721 72.42V66.32H253.221V72.08C253.221 73.04 253.434 73.76 253.861 74.24C254.301 74.7067 254.921 74.94 255.721 74.94C256.308 74.94 256.814 74.82 257.241 74.58C257.681 74.34 258.021 73.98 258.261 73.5C258.514 73.02 258.641 72.4267 258.641 71.72V66.32H261.141V77H258.761V74.12L259.181 75C258.821 75.6933 258.294 76.2267 257.601 76.6C256.908 76.96 256.148 77.14 255.321 77.14ZM259.521 68.1V66.32H259.941C260.354 66.32 260.661 66.2 260.861 65.96C261.074 65.72 261.181 65.4133 261.181 65.04C261.181 64.8 261.141 64.5733 261.061 64.36C260.994 64.1467 260.901 63.96 260.781 63.8L262.321 63.24C262.508 63.48 262.654 63.76 262.761 64.08C262.868 64.4 262.921 64.7467 262.921 65.12C262.921 66.04 262.654 66.7667 262.121 67.3C261.588 67.8333 260.854 68.1 259.921 68.1H259.521ZM255.921 81.06C255.588 81.06 255.301 80.9533 255.061 80.74C254.834 80.5267 254.721 80.24 254.721 79.88C254.721 79.52 254.834 79.2267 255.061 79C255.301 78.7733 255.588 78.66 255.921 78.66C256.254 78.66 256.534 78.7733 256.761 79C257.001 79.2267 257.121 79.52 257.121 79.88C257.121 80.24 257.001 80.5267 256.761 80.74C256.534 80.9533 256.254 81.06 255.921 81.06ZM270.635 74.62L270.695 71.48L276.275 66.32H279.275L274.535 71.08L273.215 72.18L270.635 74.62ZM268.595 77V62.16H271.095V77H268.595ZM276.655 77L272.755 72.18L274.335 70.18L279.695 77H276.655ZM280.51 77V66.32H283.01V77H280.51ZM281.77 64.56C281.304 64.56 280.917 64.4133 280.61 64.12C280.317 63.8267 280.17 63.4733 280.17 63.06C280.17 62.6333 280.317 62.28 280.61 62C280.917 61.7067 281.304 61.56 281.77 61.56C282.237 61.56 282.617 61.7 282.91 61.98C283.217 62.2467 283.37 62.5867 283.37 63C283.37 63.44 283.224 63.8133 282.93 64.12C282.637 64.4133 282.25 64.56 281.77 64.56ZM290.511 77.14C289.325 77.14 288.285 76.9067 287.391 76.44C286.511 75.96 285.825 75.3067 285.331 74.48C284.851 73.6533 284.611 72.7133 284.611 71.66C284.611 70.5933 284.845 69.6533 285.311 68.84C285.791 68.0133 286.445 67.3667 287.271 66.9C288.111 66.4333 289.065 66.2 290.131 66.2C291.171 66.2 292.098 66.4267 292.911 66.88C293.725 67.3333 294.365 67.9733 294.831 68.8C295.298 69.6267 295.531 70.6 295.531 71.72C295.531 71.8267 295.525 71.9467 295.511 72.08C295.511 72.2133 295.505 72.34 295.491 72.46H286.591V70.8H294.171L293.191 71.32C293.205 70.7067 293.078 70.1667 292.811 69.7C292.545 69.2333 292.178 68.8667 291.711 68.6C291.258 68.3333 290.731 68.2 290.131 68.2C289.518 68.2 288.978 68.3333 288.511 68.6C288.058 68.8667 287.698 69.24 287.431 69.72C287.178 70.1867 287.051 70.74 287.051 71.38V71.78C287.051 72.42 287.198 72.9867 287.491 73.48C287.785 73.9733 288.198 74.3533 288.731 74.62C289.265 74.8867 289.878 75.02 290.571 75.02C291.171 75.02 291.711 74.9267 292.191 74.74C292.671 74.5533 293.098 74.26 293.471 73.86L294.811 75.4C294.331 75.96 293.725 76.3933 292.991 76.7C292.271 76.9933 291.445 77.14 290.511 77.14ZM290.071 81.06C289.738 81.06 289.451 80.9533 289.211 80.74C288.985 80.5267 288.871 80.24 288.871 79.88C288.871 79.52 288.985 79.2267 289.211 79C289.451 78.7733 289.738 78.66 290.071 78.66C290.405 78.66 290.685 78.7733 290.911 79C291.151 79.2267 291.271 79.52 291.271 79.88C291.271 80.24 291.151 80.5267 290.911 80.74C290.685 80.9533 290.405 81.06 290.071 81.06ZM286.251 64.86L288.931 62.12H291.211L293.891 64.86H291.831L289.111 62.56H291.031L288.311 64.86H286.251ZM303.193 66.2C304.046 66.2 304.806 66.3667 305.473 66.7C306.153 67.0333 306.686 67.5467 307.073 68.24C307.46 68.92 307.653 69.8 307.653 70.88V77H305.153V71.2C305.153 70.2533 304.926 69.5467 304.473 69.08C304.033 68.6133 303.413 68.38 302.613 68.38C302.026 68.38 301.506 68.5 301.053 68.74C300.6 68.98 300.246 69.34 299.993 69.82C299.753 70.2867 299.633 70.88 299.633 71.6V77H297.133V66.32H299.513V69.2L299.093 68.32C299.466 67.64 300.006 67.12 300.713 66.76C301.433 66.3867 302.26 66.2 303.193 66.2Z" fill="#F1F9FF"/>
<path d="M163.989 127V122.8L174.789 112.6C175.643 111.827 176.269 111.133 176.669 110.52C177.069 109.907 177.336 109.347 177.469 108.84C177.629 108.333 177.709 107.867 177.709 107.44C177.709 106.32 177.323 105.467 176.549 104.88C175.803 104.267 174.696 103.96 173.229 103.96C172.056 103.96 170.963 104.187 169.949 104.64C168.963 105.093 168.123 105.8 167.429 106.76L162.709 103.72C163.776 102.12 165.269 100.853 167.189 99.92C169.109 98.9867 171.323 98.52 173.829 98.52C175.909 98.52 177.723 98.8667 179.269 99.56C180.843 100.227 182.056 101.173 182.909 102.4C183.789 103.627 184.229 105.093 184.229 106.8C184.229 107.707 184.109 108.613 183.869 109.52C183.656 110.4 183.203 111.333 182.509 112.32C181.843 113.307 180.856 114.413 179.549 115.64L170.589 124.08L169.349 121.72H185.149V127H163.989ZM198.623 127.48C196.33 127.48 194.277 126.92 192.463 125.8C190.65 124.653 189.223 123 188.183 120.84C187.143 118.68 186.623 116.067 186.623 113C186.623 109.933 187.143 107.32 188.183 105.16C189.223 103 190.65 101.36 192.463 100.24C194.277 99.0933 196.33 98.52 198.623 98.52C200.943 98.52 202.997 99.0933 204.783 100.24C206.597 101.36 208.023 103 209.063 105.16C210.103 107.32 210.623 109.933 210.623 113C210.623 116.067 210.103 118.68 209.063 120.84C208.023 123 206.597 124.653 204.783 125.8C202.997 126.92 200.943 127.48 198.623 127.48ZM198.623 122C199.717 122 200.663 121.693 201.463 121.08C202.29 120.467 202.93 119.493 203.383 118.16C203.863 116.827 204.103 115.107 204.103 113C204.103 110.893 203.863 109.173 203.383 107.84C202.93 106.507 202.29 105.533 201.463 104.92C200.663 104.307 199.717 104 198.623 104C197.557 104 196.61 104.307 195.783 104.92C194.983 105.533 194.343 106.507 193.863 107.84C193.41 109.173 193.183 110.893 193.183 113C193.183 115.107 193.41 116.827 193.863 118.16C194.343 119.493 194.983 120.467 195.783 121.08C196.61 121.693 197.557 122 198.623 122ZM212.175 127V122.8L222.975 112.6C223.829 111.827 224.455 111.133 224.855 110.52C225.255 109.907 225.522 109.347 225.655 108.84C225.815 108.333 225.895 107.867 225.895 107.44C225.895 106.32 225.509 105.467 224.735 104.88C223.989 104.267 222.882 103.96 221.415 103.96C220.242 103.96 219.149 104.187 218.135 104.64C217.149 105.093 216.309 105.8 215.615 106.76L210.895 103.72C211.962 102.12 213.455 100.853 215.375 99.92C217.295 98.9867 219.509 98.52 222.015 98.52C224.095 98.52 225.909 98.8667 227.455 99.56C229.029 100.227 230.242 101.173 231.095 102.4C231.975 103.627 232.415 105.093 232.415 106.8C232.415 107.707 232.295 108.613 232.055 109.52C231.842 110.4 231.389 111.333 230.695 112.32C230.029 113.307 229.042 114.413 227.735 115.64L218.775 124.08L217.535 121.72H233.335V127H212.175ZM234.059 121.12V116.76L247.259 99H254.059L241.139 116.76L237.979 115.84H260.019V121.12H234.059ZM249.139 127V121.12L249.339 115.84V110.6H255.459V127H249.139Z" fill="#F1F9FF"/>
<path d="M69.376 320L59.712 297.6H65.312L73.76 317.44H70.464L79.04 297.6H84.192L74.496 320H69.376ZM86.8325 326.464C85.9365 326.464 85.0512 326.325 84.1765 326.048C83.3018 325.771 82.5872 325.387 82.0325 324.896L83.8565 321.344C84.2405 321.685 84.6778 321.952 85.1685 322.144C85.6805 322.336 86.1818 322.432 86.6725 322.432C87.3765 322.432 87.9312 322.261 88.3365 321.92C88.7632 321.6 89.1472 321.056 89.4885 320.288L90.3845 318.176L90.7685 317.632L96.9445 302.784H101.745L93.9685 321.056C93.4138 322.443 92.7738 323.531 92.0485 324.32C91.3445 325.109 90.5552 325.664 89.6805 325.984C88.8272 326.304 87.8778 326.464 86.8325 326.464ZM89.7765 320.672L82.0965 302.784H87.2485L93.2005 317.184L89.7765 320.672ZM108.364 320.256C106.892 320.256 105.473 320.085 104.108 319.744C102.764 319.381 101.697 318.933 100.908 318.4L102.572 314.816C103.361 315.307 104.289 315.712 105.356 316.032C106.444 316.331 107.51 316.48 108.556 316.48C109.708 316.48 110.518 316.341 110.988 316.064C111.478 315.787 111.724 315.403 111.724 314.912C111.724 314.507 111.532 314.208 111.148 314.016C110.785 313.803 110.294 313.643 109.676 313.536C109.057 313.429 108.374 313.323 107.628 313.216C106.902 313.109 106.166 312.971 105.42 312.8C104.673 312.608 103.99 312.331 103.372 311.968C102.753 311.605 102.252 311.115 101.868 310.496C101.505 309.877 101.324 309.077 101.324 308.096C101.324 307.008 101.633 306.048 102.252 305.216C102.892 304.384 103.809 303.733 105.004 303.264C106.198 302.773 107.628 302.528 109.292 302.528C110.465 302.528 111.66 302.656 112.876 302.912C114.092 303.168 115.105 303.541 115.916 304.032L114.252 307.584C113.42 307.093 112.577 306.763 111.724 306.592C110.892 306.4 110.081 306.304 109.292 306.304C108.182 306.304 107.372 306.453 106.86 306.752C106.348 307.051 106.092 307.435 106.092 307.904C106.092 308.331 106.273 308.651 106.636 308.864C107.02 309.077 107.521 309.248 108.14 309.376C108.758 309.504 109.43 309.621 110.156 309.728C110.902 309.813 111.649 309.952 112.396 310.144C113.142 310.336 113.814 310.613 114.412 310.976C115.03 311.317 115.532 311.797 115.916 312.416C116.3 313.013 116.492 313.803 116.492 314.784C116.492 315.851 116.172 316.8 115.532 317.632C114.892 318.443 113.964 319.083 112.748 319.552C111.553 320.021 110.092 320.256 108.364 320.256ZM129.171 320V316.64L128.851 315.904V309.888C128.851 308.821 128.521 307.989 127.859 307.392C127.219 306.795 126.227 306.496 124.883 306.496C123.966 306.496 123.059 306.645 122.163 306.944C121.289 307.221 120.542 307.605 119.923 308.096L118.131 304.608C119.07 303.947 120.201 303.435 121.523 303.072C122.846 302.709 124.19 302.528 125.555 302.528C128.179 302.528 130.217 303.147 131.667 304.384C133.118 305.621 133.844 307.552 133.844 310.176V320H129.171ZM123.923 320.256C122.579 320.256 121.427 320.032 120.467 319.584C119.507 319.115 118.771 318.485 118.259 317.696C117.747 316.907 117.491 316.021 117.491 315.04C117.491 314.016 117.737 313.12 118.227 312.352C118.739 311.584 119.539 310.987 120.627 310.56C121.715 310.112 123.134 309.888 124.883 309.888H129.459V312.8H125.427C124.254 312.8 123.443 312.992 122.995 313.376C122.569 313.76 122.355 314.24 122.355 314.816C122.355 315.456 122.601 315.968 123.091 316.352C123.603 316.715 124.297 316.896 125.171 316.896C126.003 316.896 126.75 316.704 127.411 316.32C128.073 315.915 128.553 315.328 128.851 314.56L129.619 316.864C129.257 317.973 128.595 318.816 127.635 319.392C126.675 319.968 125.438 320.256 123.923 320.256ZM145.856 320V297.6H155.552C157.557 297.6 159.285 297.931 160.736 298.592C162.187 299.232 163.307 300.16 164.096 301.376C164.885 302.592 165.28 304.043 165.28 305.728C165.28 307.392 164.885 308.832 164.096 310.048C163.307 311.264 162.187 312.203 160.736 312.864C159.285 313.504 157.557 313.824 155.552 313.824H148.736L151.04 311.488V320H145.856ZM151.04 312.064L148.736 309.6H155.264C156.864 309.6 158.059 309.259 158.848 308.576C159.637 307.893 160.032 306.944 160.032 305.728C160.032 304.491 159.637 303.531 158.848 302.848C158.059 302.165 156.864 301.824 155.264 301.824H148.736L151.04 299.36V312.064ZM167.638 320V302.784H172.406V307.648L171.734 306.24C172.246 305.024 173.067 304.107 174.198 303.488C175.328 302.848 176.704 302.528 178.326 302.528V307.136C178.112 307.115 177.92 307.104 177.75 307.104C177.579 307.083 177.398 307.072 177.206 307.072C175.84 307.072 174.731 307.467 173.878 308.256C173.046 309.024 172.63 310.229 172.63 311.872V320H167.638ZM188.401 320.256C186.566 320.256 184.934 319.872 183.505 319.104C182.097 318.336 180.977 317.291 180.145 315.968C179.334 314.624 178.929 313.099 178.929 311.392C178.929 309.664 179.334 308.139 180.145 306.816C180.977 305.472 182.097 304.427 183.505 303.68C184.934 302.912 186.566 302.528 188.401 302.528C190.214 302.528 191.836 302.912 193.265 303.68C194.694 304.427 195.814 305.461 196.625 306.784C197.436 308.107 197.841 309.643 197.841 311.392C197.841 313.099 197.436 314.624 196.625 315.968C195.814 317.291 194.694 318.336 193.265 319.104C191.836 319.872 190.214 320.256 188.401 320.256ZM188.401 316.16C189.233 316.16 189.98 315.968 190.641 315.584C191.302 315.2 191.825 314.656 192.209 313.952C192.593 313.227 192.785 312.373 192.785 311.392C192.785 310.389 192.593 309.536 192.209 308.832C191.825 308.128 191.302 307.584 190.641 307.2C189.98 306.816 189.233 306.624 188.401 306.624C187.569 306.624 186.822 306.816 186.161 307.2C185.5 307.584 184.966 308.128 184.561 308.832C184.177 309.536 183.985 310.389 183.985 311.392C183.985 312.373 184.177 313.227 184.561 313.952C184.966 314.656 185.5 315.2 186.161 315.584C186.822 315.968 187.569 316.16 188.401 316.16ZM222.266 302.528C223.631 302.528 224.836 302.805 225.882 303.36C226.948 303.893 227.78 304.725 228.378 305.856C228.996 306.965 229.306 308.395 229.306 310.144V320H224.314V310.912C224.314 309.525 224.026 308.501 223.45 307.84C222.874 307.179 222.063 306.848 221.018 306.848C220.292 306.848 219.642 307.019 219.066 307.36C218.49 307.68 218.042 308.171 217.722 308.832C217.402 309.493 217.242 310.336 217.242 311.36V320H212.25V310.912C212.25 309.525 211.962 308.501 211.386 307.84C210.831 307.179 210.031 306.848 208.986 306.848C208.26 306.848 207.61 307.019 207.034 307.36C206.458 307.68 206.01 308.171 205.69 308.832C205.37 309.493 205.21 310.336 205.21 311.36V320H200.218V302.784H204.986V307.488L204.09 306.112C204.687 304.939 205.53 304.053 206.618 303.456C207.727 302.837 208.986 302.528 210.394 302.528C211.972 302.528 213.348 302.933 214.522 303.744C215.716 304.533 216.506 305.749 216.89 307.392L215.13 306.912C215.706 305.568 216.623 304.501 217.882 303.712C219.162 302.923 220.623 302.528 222.266 302.528ZM61.056 362V358.64L69.696 350.48C70.3787 349.861 70.88 349.307 71.2 348.816C71.52 348.325 71.7333 347.877 71.84 347.472C71.968 347.067 72.032 346.693 72.032 346.352C72.032 345.456 71.7227 344.773 71.104 344.304C70.5067 343.813 69.6213 343.568 68.448 343.568C67.5093 343.568 66.6347 343.749 65.824 344.112C65.0347 344.475 64.3627 345.04 63.808 345.808L60.032 343.376C60.8853 342.096 62.08 341.083 63.616 340.336C65.152 339.589 66.9227 339.216 68.928 339.216C70.592 339.216 72.0427 339.493 73.28 340.048C74.5387 340.581 75.5093 341.339 76.192 342.32C76.896 343.301 77.248 344.475 77.248 345.84C77.248 346.565 77.152 347.291 76.96 348.016C76.7893 348.72 76.4267 349.467 75.872 350.256C75.3387 351.045 74.5493 351.931 73.504 352.912L66.336 359.664L65.344 357.776H77.984V362H61.056ZM88.763 362.384C86.9283 362.384 85.2857 361.936 83.835 361.04C82.3843 360.123 81.243 358.8 80.411 357.072C79.579 355.344 79.163 353.253 79.163 350.8C79.163 348.347 79.579 346.256 80.411 344.528C81.243 342.8 82.3843 341.488 83.835 340.592C85.2857 339.675 86.9283 339.216 88.763 339.216C90.619 339.216 92.2617 339.675 93.691 340.592C95.1417 341.488 96.283 342.8 97.115 344.528C97.947 346.256 98.363 348.347 98.363 350.8C98.363 353.253 97.947 355.344 97.115 357.072C96.283 358.8 95.1417 360.123 93.691 361.04C92.2617 361.936 90.619 362.384 88.763 362.384ZM88.763 358C89.6377 358 90.395 357.755 91.035 357.264C91.6963 356.773 92.2083 355.995 92.571 354.928C92.955 353.861 93.147 352.485 93.147 350.8C93.147 349.115 92.955 347.739 92.571 346.672C92.2083 345.605 91.6963 344.827 91.035 344.336C90.395 343.845 89.6377 343.6 88.763 343.6C87.9097 343.6 87.1523 343.845 86.491 344.336C85.851 344.827 85.339 345.605 84.955 346.672C84.5923 347.739 84.411 349.115 84.411 350.8C84.411 352.485 84.5923 353.861 84.955 354.928C85.339 355.995 85.851 356.773 86.491 357.264C87.1523 357.755 87.9097 358 88.763 358ZM99.6048 362V358.64L108.245 350.48C108.927 349.861 109.429 349.307 109.749 348.816C110.069 348.325 110.282 347.877 110.389 347.472C110.517 347.067 110.581 346.693 110.581 346.352C110.581 345.456 110.271 344.773 109.653 344.304C109.055 343.813 108.17 343.568 106.997 343.568C106.058 343.568 105.183 343.749 104.373 344.112C103.583 344.475 102.911 345.04 102.357 345.808L98.5808 343.376C99.4341 342.096 100.629 341.083 102.165 340.336C103.701 339.589 105.471 339.216 107.477 339.216C109.141 339.216 110.591 339.493 111.829 340.048C113.087 340.581 114.058 341.339 114.741 342.32C115.445 343.301 115.797 344.475 115.797 345.84C115.797 346.565 115.701 347.291 115.509 348.016C115.338 348.72 114.975 349.467 114.421 350.256C113.887 351.045 113.098 351.931 112.053 352.912L104.885 359.664L103.893 357.776H116.533V362H99.6048ZM117.112 357.296V353.808L127.672 339.6H133.112L122.776 353.808L120.248 353.072H137.88V357.296H117.112ZM129.176 362V357.296L129.336 353.072V348.88H134.232V362H129.176Z" fill="white"/>
</g>
<defs>
<filter id="filter0_d_40000028_5552" x="0" y="0" width="364" height="436" filterUnits="userSpaceOnUse" color-interpolation-filters="sRGB">
<feFlood flood-opacity="0" result="BackgroundImageFix"/>
<feColorMatrix in="SourceAlpha" type="matrix" values="0 0 0 0 0 0 0 0 0 0 0 0 0 0 0 0 0 0 127 0" result="hardAlpha"/>
<feOffset dy="4"/>
<feGaussianBlur stdDeviation="16"/>
<feComposite in2="hardAlpha" operator="out"/>
<feColorMatrix type="matrix" values="0 0 0 0 0 0 0 0 0 0.151667 0 0 0 0 0.379167 0 0 0 0.08 0"/>
<feBlend mode="normal" in2="BackgroundImageFix" result="effect1_dropShadow_40000028_5552"/>
<feBlend mode="normal" in="SourceGraphic" in2="effect1_dropShadow_40000028_5552" result="shape"/>
</filter>
</defs>
</svg>
