<svg width="36" height="36" viewBox="0 0 36 36" fill="none" xmlns="http://www.w3.org/2000/svg">
<path d="M21.6 21.7C21.2 21.7 20.9 21.5 20.7 21.2L19.5 19.1C19 18 18 17 16.9 16.4L14.8 15.2C14.5 15.1 14.3 14.7 14.3 14.4C14.3 14 14.5 13.7 14.8 13.5L16.9 12.3C18 11.7 19 10.8 19.6 9.6L20.8 7.5C20.9 7.2 21.3 7 21.6 7C22 7 22.3 7.2 22.5 7.5L23.7 9.6C24.3 10.7 25.3 11.7 26.4 12.3L28.5 13.5C28.8 13.7 29 14 29 14.4C29 14.8 28.8 15.1 28.5 15.3L26.4 16.5C25.3 17.1 24.3 18.1 23.7 19.2L22.5 21.3C22.3 21.5 22 21.7 21.6 21.7Z" fill="#38B6FF"/>
<path d="M12.5 29C12.1 29 11.8 28.8 11.6 28.5L11 27.3C10.5 26.3 9.7 25.5 8.7 25L7.5 24.4C7.2 24.2 7 23.8 7 23.5C7 23.1 7.2 22.8 7.5 22.6L8.7 22C9.7 21.5 10.5 20.7 11 19.7L11.6 18.5C12 17.9 13 17.9 13.4 18.5L14 19.7C14.5 20.7 15.3 21.5 16.3 22L17.5 22.6C17.8 22.8 18 23.1 18 23.5C18 23.9 17.8 24.2 17.5 24.4L16.4 25C15.4 25.5 14.6 26.3 14.1 27.3L13.5 28.5C13.2 28.8 12.9 29 12.5 29Z" fill="#38B6FF"/>
</svg>
