<svg width="24" height="24" viewBox="0 0 24 24" fill="none" xmlns="http://www.w3.org/2000/svg">
<path d="M15.6 15.7C15.2 15.7 14.9 15.5 14.7 15.2L13.5 13.1C13 12 12 11 10.9 10.4L8.80005 9.2C8.50005 9.1 8.30005 8.7 8.30005 8.4C8.30005 8 8.50005 7.7 8.80005 7.5L10.9 6.3C12 5.7 13 4.8 13.6 3.6L14.8 1.5C14.9 1.2 15.3 1 15.6 1C16 1 16.3 1.2 16.5 1.5L17.7 3.6C18.3 4.7 19.3 5.7 20.4 6.3L22.5 7.5C22.8 7.7 23 8 23 8.4C23 8.8 22.8 9.1 22.5 9.3L20.4 10.5C19.3 11.1 18.3 12.1 17.7 13.2L16.5 15.3C16.3 15.5 16 15.7 15.6 15.7Z" fill="white"/>
<path d="M6.5 23C6.1 23 5.8 22.8 5.6 22.5L5 21.3C4.5 20.3 3.7 19.5 2.7 19L1.5 18.4C1.2 18.2 1 17.8 1 17.5C1 17.1 1.2 16.8 1.5 16.6L2.7 16C3.7 15.5 4.5 14.7 5 13.7L5.6 12.5C6 11.9 7 11.9 7.4 12.5L8 13.7C8.5 14.7 9.3 15.5 10.3 16L11.5 16.6C11.8 16.8 12 17.1 12 17.5C12 17.9 11.8 18.2 11.5 18.4L10.4 19C9.4 19.5 8.6 20.3 8.1 21.3L7.5 22.5C7.2 22.8 6.9 23 6.5 23Z" fill="white"/>
</svg>
