<svg width="24" height="24" viewBox="0 0 24 24" fill="none" xmlns="http://www.w3.org/2000/svg">
<g id="Zalo">
<path id="Subtract" fill-rule="evenodd" clip-rule="evenodd" d="M23.9173 11.9987C23.9173 18.5801 18.582 23.9154 12.0007 23.9154C9.83011 23.9154 7.7951 23.3351 6.04232 22.3211L1.07704 22.9223L1.67822 17.957C0.664292 16.2042 0.0839844 14.1692 0.0839844 11.9987C0.0839844 5.4173 5.41926 0.0820312 12.0007 0.0820312C18.582 0.0820312 23.9173 5.4173 23.9173 11.9987ZM18.7588 15.235C17.4313 15.235 16.3504 14.1542 16.3504 12.8267C16.3504 11.4992 17.4313 10.4183 18.7588 10.4183C20.0863 10.4183 21.1672 11.4992 21.1672 12.8267C21.1672 14.1542 20.0863 15.235 18.7588 15.235ZM18.7588 11.3817C17.9624 11.3817 17.3138 12.0303 17.3138 12.8267C17.3138 13.623 17.9624 14.2717 18.7588 14.2717C19.5552 14.2717 20.2038 13.623 20.2038 12.8267C20.2038 12.0303 19.5552 11.3817 18.7588 11.3817ZM14.7433 15.2353H15.3856V9.45527H14.4222V14.9142C14.4222 15.0915 14.5661 15.2353 14.7433 15.2353ZM12.4982 10.5789V10.9122C12.0942 10.6065 11.5971 10.4183 11.0532 10.4183C9.72566 10.4183 8.64479 11.4992 8.64479 12.8267C8.64479 14.1542 9.72566 15.235 11.0532 15.235C11.5971 15.235 12.0942 15.0469 12.4982 14.7412V14.9139C12.4982 15.0912 12.642 15.235 12.8193 15.235H13.4615V10.5789H12.4982ZM11.0532 14.2717C10.2568 14.2717 9.60813 13.623 9.60813 12.8267C9.60813 12.0303 10.2568 11.3817 11.0532 11.3817C11.8495 11.3817 12.4982 12.0303 12.4982 12.8267C12.4982 13.623 11.8495 14.2717 11.0532 14.2717ZM3.66642 9.45518H8.80426V9.61573C8.80426 9.80005 8.73169 9.96189 8.627 10.0974H8.6437L5.06584 14.2719H8.48314V14.9141C8.48314 15.0914 8.33928 15.2353 8.16203 15.2353H3.3453V15.0747C3.3453 14.8904 3.41787 14.7285 3.52256 14.593H3.50586L7.08372 10.4185H3.66642V9.45518Z" fill="white"/>
</g>
</svg>
