<svg width="20" height="20" viewBox="0 0 20 20" fill="none" xmlns="http://www.w3.org/2000/svg">
<g id="copy">
<path id="Vector 1" d="M12.5139 18.125L3.875 18.125C2.77043 18.125 1.875 17.2296 1.875 16.125L1.875 7.48612C1.875 6.38155 2.77043 5.48612 3.875 5.48612L12.5139 5.48612C13.6185 5.48612 14.5139 6.38155 14.5139 7.48612L14.5139 16.125C14.5139 17.2296 13.6185 18.125 12.5139 18.125Z" stroke="#38B6FF" stroke-width="1.875" stroke-linecap="round"/>
<path id="Vector 2" d="M5.48438 5.48611V3.875C5.48438 2.77043 6.37981 1.875 7.48438 1.875H16.1233C17.2278 1.875 18.1233 2.77043 18.1233 3.875V12.5139C18.1233 13.6185 17.2278 14.5139 16.1233 14.5139H14.5122" stroke="#38B6FF" stroke-width="1.875" stroke-linecap="round"/>
</g>
</svg>
