<svg width="14" height="14" viewBox="0 0 14 14" fill="none" xmlns="http://www.w3.org/2000/svg">
<g id="Sender Location Icon">
<path id="Vector" d="M10.6172 1.98335C9.50885 0.991682 8.05052 0.466682 6.53385 0.641682C4.20052 0.816682 2.27552 2.50835 1.86719 4.66668C1.57552 6.06668 1.86719 7.46668 2.74219 8.63335L5.71719 12.775C5.95052 13.1833 6.47552 13.4167 7.00052 13.4167C7.52552 13.4167 8.05052 13.1833 8.34219 12.7167L11.3172 8.57501C11.9589 7.70001 12.2505 6.70835 12.2505 5.65835C12.2505 4.25835 11.6672 2.91668 10.6172 1.98335Z" fill="#38B6FF"/>
<path id="Vector_2" d="M6.99896 7.64165C8.09432 7.64165 8.98229 6.75369 8.98229 5.65832C8.98229 4.56296 8.09432 3.67499 6.99896 3.67499C5.90359 3.67499 5.01562 4.56296 5.01562 5.65832C5.01562 6.75369 5.90359 7.64165 6.99896 7.64165Z" fill="white"/>
</g>
</svg>
