<svg xmlns="http://www.w3.org/2000/svg" width="24" height="24" viewBox="0 0 24 24" fill="none">
  <path d="M12 24C18.6274 24 24 18.6274 24 12C24 5.37258 18.6274 0 12 0C5.37258 0 0 5.37258 0 12C0 18.6274 5.37258 24 12 24Z" fill="#38B6FF"/>
  <path d="M12.7969 11.6016H14.7604C14.7792 11.4709 14.7891 11.3378 14.7891 11.2031V10.0078H13.5938C13.3599 10.0078 13.1433 9.93778 12.9588 9.8213C12.5521 10.5741 11.7118 10.8047 11.2031 10.8047H9.21094V11.2031C9.21094 12.2895 9.84089 13.2696 10.8047 13.7249V14.3906C10.8047 15.0498 11.3408 15.5859 12 15.5859C12.6592 15.5859 13.1953 15.0498 13.1953 14.3906V13.7249C13.7836 13.447 14.245 12.9722 14.5172 12.3984H12.7969C12.5767 12.3984 12.3984 12.2202 12.3984 12C12.3984 11.7798 12.5767 11.6016 12.7969 11.6016ZM12.3984 8.8125C12.3984 8.59228 12.5767 8.41406 12.7969 8.41406C13.0171 8.41406 13.1953 8.59228 13.1953 8.8125C13.1953 9.03234 13.3739 9.21094 13.5938 9.21094H14.7488C14.5534 7.86291 13.4013 6.82031 12 6.82031C10.4623 6.82031 9.21094 8.07164 9.21094 9.60938V10.0078H11.2031C11.4008 10.0055 12.3984 9.93741 12.3984 8.8125ZM14.3906 13.9922H13.9922V14.3906C13.9922 15.4889 13.0983 16.3828 12 16.3828C10.9017 16.3828 10.0078 15.4889 10.0078 14.3906V13.9922H9.60938C8.07188 13.9922 6.82031 15.2437 6.82031 16.7812V18.375C6.82031 18.5953 6.99844 18.7734 7.21875 18.7734H8.41406V16.9177C8.41406 16.6973 8.59219 16.5192 8.8125 16.5192C9.03281 16.5192 9.21094 16.6973 9.21094 16.9177V18.7734H14.7891V16.9177C14.7891 16.6973 14.9672 16.5192 15.1875 16.5192C15.4078 16.5192 15.5859 16.6973 15.5859 16.9177V18.7734H16.7812C17.0016 18.7734 17.1797 18.5953 17.1797 18.375V16.7812C17.1797 15.2437 15.9281 13.9922 14.3906 13.9922ZM13.5938 17.9766H12.7969C12.5766 17.9766 12.3984 17.7984 12.3984 17.5781C12.3984 17.3578 12.5766 17.1797 12.7969 17.1797H13.5938C13.8141 17.1797 13.9922 17.3578 13.9922 17.5781C13.9922 17.7984 13.8141 17.9766 13.5938 17.9766ZM8.61952 12.3789C8.48911 12.0055 8.41406 11.6101 8.41406 11.2031V9.60938C8.41406 7.63195 10.0226 6.02344 12 6.02344C13.9774 6.02344 15.5859 7.63195 15.5859 9.60938V11.2031C15.5859 11.6101 15.5109 12.0056 15.3805 12.3789C15.9477 12.2859 16.3828 11.7961 16.3828 11.2031V9.60938C16.3828 7.19269 14.4167 5.22656 12 5.22656C9.58331 5.22656 7.61719 7.19269 7.61719 9.60938V11.2031C7.61719 11.7961 8.05237 12.2859 8.61952 12.3789Z" fill="white"/>
</svg>