<svg width="28" height="28" viewBox="0 0 28 28" fill="none" xmlns="http://www.w3.org/2000/svg">
<path fill-rule="evenodd" clip-rule="evenodd" d="M13.9994 27.3333C21.3631 27.3333 27.3327 21.3638 27.3327 14C27.3327 6.63616 21.3631 0.666626 13.9994 0.666626C6.63555 0.666626 0.666016 6.63616 0.666016 14C0.666016 21.3638 6.63555 27.3333 13.9994 27.3333ZM16.0398 9.29285L20.0398 13.2929C20.4303 13.6834 20.4303 14.3165 20.0398 14.7071L16.0398 18.7071C15.6493 19.0976 15.0161 19.0976 14.6256 18.7071C14.235 18.3165 14.235 17.6834 14.6256 17.2929L16.9185 15H8.66601C8.11373 15 7.66601 14.5522 7.66601 14C7.66601 13.4477 8.11373 13 8.66601 13H16.9185L14.6256 10.7071C14.235 10.3165 14.235 9.68338 14.6256 9.29285C15.0161 8.90233 15.6493 8.90233 16.0398 9.29285Z" fill="#38B6FF"/>
</svg>
